<svg width="25" height="25" viewBox="0 0 14 25" fill="none" xmlns="http://www.w3.org/2000/svg">
  <path d="M12.5875 9.85263H10.4896H9.74033V9.05807V6.59491V5.80034H10.4896H12.063C12.4751 5.80034 12.8123 5.48251 12.8123 5.00577V0.794567C12.8123 0.357555 12.5126 0 12.063 0H9.32824C6.36868 0 4.30822 2.22479 4.30822 5.52224V8.97861V9.77318H3.55897H1.0115C0.487017 9.77318 0 10.2102 0 10.8458V13.7063C0 14.2625 0.412091 14.7789 1.0115 14.7789H3.48404H4.2333V15.5735V23.5589C4.2333 24.1151 4.64539 24.6316 5.2448 24.6316H8.7663C8.99108 24.6316 9.17839 24.5124 9.32824 24.3535C9.4781 24.1946 9.59048 23.9165 9.59048 23.6781V15.6132V14.8187H10.3772H12.063C12.55 14.8187 12.9247 14.5009 12.9996 14.0241V13.9844V13.9447L13.5241 11.2034C13.5615 10.9253 13.5241 10.6075 13.2993 10.2896C13.2244 10.091 12.8872 9.89236 12.5875 9.85263Z" fill="#1751D0"/>
</svg>
