<svg width="25" height="20" viewBox="0 0 25 20" fill="none" xmlns="http://www.w3.org/2000/svg">
  <path d="M22.0919 4.03651L23.5853 2.23694C24.0176 1.74956 24.1355 1.37465 24.1748 1.1872C22.9958 1.86203 21.8954 2.08698 21.188 2.08698H20.9129L20.7557 1.93702C19.8125 1.14971 18.6335 0.737305 17.3759 0.737305C14.6249 0.737305 12.4634 2.91178 12.4634 5.42368C12.4634 5.57364 12.4634 5.79859 12.5027 5.94855L12.6206 6.69837L11.7953 6.66088C6.76483 6.51092 2.63831 2.38691 1.97021 1.67458C0.869802 3.54913 1.49861 5.3487 2.16671 6.47343L3.50292 8.57292L1.3807 7.44819C1.42001 9.02281 2.04881 10.26 3.26711 11.1598L4.32822 11.9096L3.26711 12.322C3.93522 14.2341 5.42863 15.0214 6.52903 15.3213L7.98314 15.6962L6.60763 16.596C4.40682 18.0956 1.65581 17.9832 0.4375 17.8707C2.91341 19.5203 5.86093 19.8952 7.90454 19.8952C9.43725 19.8952 10.577 19.7452 10.8521 19.6328C21.8561 17.1584 22.367 7.78561 22.367 5.91106V5.64862L22.6028 5.49866C23.939 4.29895 24.4892 3.6616 24.8036 3.28669C24.6857 3.32418 24.5285 3.39916 24.3713 3.43666L22.0919 4.03651Z" fill="#1DA1F2"/>
</svg>