<svg width="24" height="25" viewBox="0 0 24 25" fill="none" xmlns="http://www.w3.org/2000/svg">
<path d="M11.2933 3.41365C11.6838 3.02313 12.317 3.02313 12.7075 3.41365L15.56 6.2661C15.9505 6.65663 15.9505 7.28979 15.56 7.68032L12.7075 10.5328C12.317 10.9233 11.6838 10.9233 11.2933 10.5328L8.44083 7.68032C8.05031 7.28979 8.05031 6.65663 8.44083 6.2661L11.2933 3.41365Z" fill="white"/>
<path d="M16.6266 8.74698C17.0171 8.35646 17.6503 8.35646 18.0408 8.74698L20.8933 11.5994C21.2838 11.99 21.2838 12.6231 20.8933 13.0136L18.0408 15.8661C17.6503 16.2566 17.0171 16.2566 16.6266 15.8661L13.7742 13.0136C13.3836 12.6231 13.3836 11.99 13.7742 11.5994L16.6266 8.74698Z" fill="white"/>
<path d="M5.95995 8.74698C6.35048 8.35646 6.98364 8.35646 7.37416 8.74698L10.2266 11.5994C10.6171 11.99 10.6171 12.6231 10.2266 13.0136L7.37416 15.8661C6.98364 16.2566 6.35048 16.2566 5.95995 15.8661L3.1075 13.0136C2.71697 12.6231 2.71697 11.99 3.1075 11.5994L5.95995 8.74698Z" fill="white"/>
<path d="M11.2933 14.0803C11.6838 13.6898 12.317 13.6898 12.7075 14.0803L15.56 16.9328C15.9505 17.3233 15.9505 17.9565 15.56 18.347L12.7075 21.1994C12.317 21.59 11.6838 21.59 11.2933 21.1994L8.44083 18.347C8.05031 17.9565 8.05031 17.3233 8.44083 16.9328L11.2933 14.0803Z" fill="white"/>
</svg>