<svg width="24" height="25" viewBox="0 0 24 25" fill="none" xmlns="http://www.w3.org/2000/svg">
  <path d="M20.43 18.4998H3.57109C3.09677 18.4998 2.83186 17.7712 3.11877 17.3664C3.78453 16.4271 4.42712 15.0495 4.42712 13.3905L4.45458 10.9867C4.45458 6.52047 7.83278 2.8999 12 2.8999C16.2286 2.8999 19.6566 6.5738 19.6566 11.1058L19.6291 13.3905C19.6291 15.0609 20.2495 16.446 20.8882 17.3857C21.164 17.7915 20.8984 18.4998 20.43 18.4998Z" fill="white"/>
  <path d="M9 20.0997C8.44772 20.0997 8 20.5474 8 21.0997C8 21.652 8.44772 22.0997 9 22.0997H15C15.5523 22.0997 16 21.652 16 21.0997C16 20.5474 15.5523 20.0997 15 20.0997H9Z" fill="white"/>
</svg>
