<svg width="20" height="18" viewBox="0 0 20 18" fill="none" xmlns="http://www.w3.org/2000/svg">
<path d="M1.17795 0.0468445C0.625663 0.0468445 0.177948 0.49456 0.177948 1.04684C0.177948 1.59913 0.625663 2.04684 1.17795 2.04684H2.76144L6.68023 12.9602C6.76384 13.1987 6.92866 13.3855 7.1328 13.5004C7.32059 13.6157 7.5468 13.6694 7.77966 13.6403L17.6699 12.404C18.0946 12.3509 18.4385 12.0334 18.5252 11.6143L19.8507 5.20735C19.9792 4.58675 19.5052 4.00475 18.8715 4.00475L5.6594 4.00465L4.41415 0.715952C4.27361 0.315145 3.89522 0.0468445 3.47048 0.0468445H1.17795Z" fill="white"/>
<path d="M10.4993 16.017C10.4993 16.8711 9.80687 17.5635 8.95276 17.5635C8.09864 17.5635 7.40625 16.8711 7.40625 16.017C7.40625 15.1629 8.09864 14.4705 8.95276 14.4705C9.80687 14.4705 10.4993 15.1629 10.4993 16.017Z" fill="white"/>
<path d="M18.1345 16.017C18.1345 16.8711 17.4421 17.5635 16.588 17.5635C15.7339 17.5635 15.0415 16.8711 15.0415 16.017C15.0415 15.1629 15.7339 14.4705 16.588 14.4705C17.4421 14.4705 18.1345 15.1629 18.1345 16.017Z" fill="white"/>
</svg>