<svg width="16" height="16" viewBox="0 0 16 16" fill="none" xmlns="http://www.w3.org/2000/svg">
<path d="M8.62996 8.00296L15.4749 1.1413C15.6478 0.968524 15.6478 0.69702 15.4749 0.524244C15.3019 0.351469 15.0301 0.351469 14.8571 0.524244L8.01219 7.3859L1.14259 0.548926C0.96961 0.376151 0.697791 0.376151 0.524815 0.548926C0.35184 0.721702 0.35184 0.993207 0.524815 1.16598L7.39442 8.00296L0.549526 14.8646C0.37655 15.0374 0.37655 15.3089 0.549526 15.4817C0.623658 15.5557 0.747213 15.6051 0.846056 15.6051C0.944899 15.6051 1.06845 15.5557 1.14259 15.4817L8.01219 8.62001L14.8571 15.4817C14.9312 15.5557 15.0548 15.6051 15.1536 15.6051C15.2525 15.6051 15.376 15.5557 15.4501 15.4817C15.6231 15.3089 15.6231 15.0374 15.4501 14.8646L8.62996 8.00296Z" fill="#0A090B"/>
<path fill-rule="evenodd" clip-rule="evenodd" d="M14.8571 0.524244C15.0301 0.351469 15.3019 0.351469 15.4749 0.524244C15.6478 0.69702 15.6478 0.968524 15.4749 1.1413L8.62996 8.00296L15.4501 14.8646C15.6231 15.0374 15.6231 15.3089 15.4501 15.4817C15.376 15.5557 15.2525 15.6051 15.1536 15.6051C15.0548 15.6051 14.9312 15.5557 14.8571 15.4817L8.01219 8.62001L1.14259 15.4817C1.06845 15.5557 0.944899 15.6051 0.846056 15.6051C0.747213 15.6051 0.623658 15.5557 0.549526 15.4817C0.37655 15.3089 0.37655 15.0374 0.549526 14.8646L7.39442 8.00296L0.524815 1.16598C0.35184 0.993207 0.35184 0.721702 0.524815 0.548926C0.697791 0.376151 0.96961 0.376151 1.14259 0.548926L8.01219 7.3859L14.8571 0.524244ZM8.01122 6.82741L14.577 0.245502C14.9044 -0.0814977 15.4271 -0.0820018 15.7545 0.244998C16.0817 0.57183 16.0818 1.09301 15.755 1.42004M15.755 1.42004L9.18763 8.00346L15.7298 14.5854C15.7296 14.5852 15.7299 14.5855 15.7298 14.5854C16.0567 14.9124 16.057 15.4341 15.7298 15.7609C15.5806 15.9099 15.3562 16 15.1537 16C14.9511 16 14.7267 15.9099 14.5776 15.7609L8.01172 9.17901L1.42219 15.7609C1.27307 15.9099 1.0486 16 0.846093 16C0.643587 16 0.419114 15.9099 0.269992 15.7609C-0.0573859 15.4339 -0.0573859 14.9124 0.269992 14.5854L6.83532 8.00397L0.245786 1.44573C-0.0815921 1.11873 -0.0820967 0.59668 0.245282 0.26968C0.572556 -0.0572156 1.09448 -0.0573195 1.42188 0.269368C1.42178 0.269265 1.42199 0.269472 1.42188 0.269368L8.01122 6.82741" fill="#0A090B"/>
</svg>