<svg width="24" height="24" viewBox="0 0 24 24" fill="none" xmlns="http://www.w3.org/2000/svg">
  <path fill-rule="evenodd" clip-rule="evenodd" d="M20.4001 7.74256C20.4001 7.35482 20.1947 6.99652 19.8612 6.80265L12.539 2.54531C12.2055 2.35143 11.7947 2.35143 11.4612 2.54531L4.13896 6.80265C3.80551 6.99652 3.6001 7.35482 3.6001 7.74256V16.2572C3.6001 16.645 3.80551 17.0033 4.13896 17.1972L11.4612 21.4545C11.7947 21.6484 12.2055 21.6484 12.539 21.4545L19.8612 17.1972C20.1947 17.0033 20.4001 16.645 20.4001 16.2572V7.74256ZM12.0001 15.2559C13.7857 15.2559 15.2333 13.7981 15.2333 11.9999C15.2333 10.2017 13.7857 8.74394 12.0001 8.74394C10.2145 8.74394 8.76694 10.2017 8.76694 11.9999C8.76694 13.7981 10.2145 15.2559 12.0001 15.2559Z" fill="#2C1DFE"/>
</svg>
