<svg width="24" height="25" viewBox="0 0 24 25" fill="none" xmlns="http://www.w3.org/2000/svg">
<path fill-rule="evenodd" clip-rule="evenodd" d="M17.8062 3.97339C17.0811 3.97339 16.4933 4.55886 16.4933 5.28108V20.6657C16.4933 21.3879 17.0811 21.9734 17.8062 21.9734H19.6871C20.4122 21.9734 21 21.3879 21 20.6657V5.28108C21 4.55886 20.4122 3.97339 19.6871 3.97339H17.8062ZM9.63726 11.8195C9.63726 11.0973 10.225 10.5119 10.9501 10.5119H12.8465C13.5716 10.5119 14.1593 11.0973 14.1593 11.8195V20.6657C14.1593 21.3879 13.5716 21.9734 12.8465 21.9734H10.9501C10.225 21.9734 9.63726 21.3879 9.63726 20.6657V11.8195ZM3 17.0503C3 16.3281 3.58779 15.7426 4.31286 15.7426H6.21927C6.94434 15.7426 7.53213 16.3281 7.53213 17.0503V20.6657C7.53213 21.3879 6.94434 21.9734 6.21927 21.9734H4.31286C3.58779 21.9734 3 21.3879 3 20.6657V17.0503Z" fill="white"/>
</svg>