<svg width="24" height="24" viewBox="0 0 24 24" fill="none" xmlns="http://www.w3.org/2000/svg">
  <path d="M5.14325 11.28C5.14325 10.8824 5.45025 10.56 5.82896 10.56H18.1718C18.5505 10.56 18.8575 10.8824 18.8575 11.28V12.72C18.8575 13.1177 18.5505 13.44 18.1718 13.44H5.82896C5.45025 13.44 5.14325 13.1177 5.14325 12.72V11.28Z" fill="#0A090B"/>
  <path d="M2.40039 5.52005C2.40039 5.1224 2.7074 4.80005 3.0861 4.80005H20.9147C21.2934 4.80005 21.6004 5.1224 21.6004 5.52005V6.96005C21.6004 7.35769 21.2934 7.68005 20.9147 7.68005H3.0861C2.7074 7.68005 2.40039 7.35769 2.40039 6.96005V5.52005Z" fill="#0A090B"/>
  <path d="M9.25753 17.04C9.25753 16.6424 9.56454 16.32 9.94325 16.32H14.0575C14.4362 16.32 14.7432 16.6424 14.7432 17.04V18.48C14.7432 18.8777 14.4362 19.2 14.0575 19.2H9.94325C9.56454 19.2 9.25753 18.8777 9.25753 18.48V17.04Z" fill="#0A090B"/>
</svg>
