<svg width="24" height="24" viewBox="0 0 24 24" fill="none" xmlns="http://www.w3.org/2000/svg">
<path d="M5.14276 11.2798C5.14276 10.8822 5.44976 10.5598 5.82847 10.5598H18.1713C18.55 10.5598 18.857 10.8822 18.857 11.2798V12.7198C18.857 13.1174 18.55 13.4398 18.1713 13.4398H5.82847C5.44976 13.4398 5.14276 13.1174 5.14276 12.7198V11.2798Z" fill="#0A090B" fill-opacity="0.5"/>
<path d="M2.3999 5.5198C2.3999 5.12216 2.70691 4.7998 3.08562 4.7998H20.9142C21.2929 4.7998 21.5999 5.12216 21.5999 5.5198V6.9598C21.5999 7.35745 21.2929 7.6798 20.9142 7.6798H3.08562C2.70691 7.6798 2.3999 7.35745 2.3999 6.9598V5.5198Z" fill="#0A090B" fill-opacity="0.5"/>
<path d="M9.25705 17.0398C9.25705 16.6422 9.56405 16.3198 9.94276 16.3198H14.057C14.4358 16.3198 14.7428 16.6422 14.7428 17.0398V18.4798C14.7428 18.8774 14.4358 19.1998 14.057 19.1998H9.94276C9.56405 19.1998 9.25705 18.8774 9.25705 18.4798V17.0398Z" fill="#0A090B" fill-opacity="0.5"/>
</svg>