<svg width="21" height="21" viewBox="0 0 21 21" fill="none" xmlns="http://www.w3.org/2000/svg">
<g clip-path="url(#clip0_141_14510)">
<path d="M20.305 10.7302C20.305 10.0504 20.2499 9.36699 20.1323 8.69824H10.7V12.5491H16.1015C15.8773 13.791 15.1571 14.8897 14.1026 15.5878V18.0864H17.325C19.2174 16.3448 20.305 13.7726 20.305 10.7302Z" fill="#2C1DFE"/>
<path d="M10.7 20.5008C13.397 20.5008 15.6715 19.6152 17.3287 18.0867L14.1062 15.588C13.2096 16.198 12.0522 16.5434 10.7037 16.5434C8.0948 16.5434 5.88279 14.7833 5.08911 12.417H1.76373V14.9928C3.46133 18.3696 6.91898 20.5008 10.7 20.5008Z" fill="#34A853"/>
<path d="M5.08546 12.4168C4.66657 11.1748 4.66657 9.82995 5.08546 8.58799V6.01221H1.76376C0.345428 8.83785 0.345428 12.1669 1.76376 14.9925L5.08546 12.4168Z" fill="#FBBC04"/>
<path d="M10.7 4.45805C12.1257 4.436 13.5036 4.97247 14.5361 5.95722L17.3911 3.10218C15.5833 1.40459 13.1839 0.471278 10.7 0.500674C6.91898 0.500674 3.46133 2.63185 1.76373 6.01234L5.08543 8.58813C5.87544 6.21811 8.09113 4.45805 10.7 4.45805Z" fill="#EA4335"/>
</g>
<defs>
<clipPath id="clip0_141_14510">
<rect width="20" height="20" fill="white" transform="translate(0.5 0.5)"/>
</clipPath>
</defs>
</svg>