<svg width="30" height="30" viewBox="0 0 30 30" fill="none" xmlns="http://www.w3.org/2000/svg">
  <rect width="30" height="30" rx="15" fill="#2C1DFE"/>
  <path fill-rule="evenodd" clip-rule="evenodd" d="M8.16762 10.2473C8.91547 9.48137 9.92965 9.05108 10.9871 9.05108C12.0446 9.05108 13.0587 9.48137 13.8066 10.2473L14.9751 11.4434L16.1435 10.2473C16.5114 9.8571 16.9515 9.54584 17.438 9.33171C17.9246 9.11758 18.4479 9.00487 18.9774 9.00015C19.5069 8.99544 20.032 9.09882 20.5221 9.30425C21.0122 9.50969 21.4575 9.81307 21.832 10.1967C22.2064 10.5803 22.5025 11.0365 22.703 11.5386C22.9035 12.0407 23.0044 12.5788 22.9998 13.1213C22.9952 13.6638 22.8852 14.1999 22.6762 14.6984C22.4672 15.1969 22.1634 15.6477 21.7825 16.0246L14.9751 23L8.16762 16.0246C7.41999 15.2584 7 14.2194 7 13.136C7 12.0526 7.41999 11.0135 8.16762 10.2473Z" fill="white"/>
</svg>
