<svg width="20" height="20" viewBox="0 0 24 24" fill="none" xmlns="http://www.w3.org/2000/svg">
<path fill-rule="evenodd" clip-rule="evenodd" d="M10.059 18.3001C10.059 18.857 10.2821 19.3912 10.6792 19.785C11.0764 20.1788 11.615 20.4001 12.1766 20.4001L19.5884 20.4001C20.15 20.4001 20.6887 20.1788 21.0858 19.785C21.4829 19.3912 21.7061 18.857 21.7061 18.3001L21.7061 5.70009C21.7061 5.14313 21.4829 4.60899 21.0858 4.21516C20.6887 3.82134 20.15 3.60009 19.5884 3.60009L12.1766 3.60009C11.615 3.60009 11.0764 3.82134 10.6792 4.21516C10.2821 4.60899 10.059 5.14313 10.059 5.70009L10.059 11.0001L6.42858 11.0001L7.88062 9.56014C8.27277 9.17126 8.27542 8.5381 7.88653 8.14594C7.49765 7.75379 6.86449 7.75114 6.47233 8.14003L3.29586 11.29C3.10651 11.4778 3.00001 11.7334 3.00001 12.0001C3.00001 12.2668 3.10651 12.5224 3.29586 12.7101L6.47233 15.8601C6.86449 16.249 7.49765 16.2464 7.88653 15.8542C8.27542 15.4621 8.27277 14.8289 7.88062 14.44L6.42858 13.0001L10.059 13.0001L10.059 18.3001ZM10.0615 13.0001L16.7061 13.0002C17.2583 13.0002 17.7061 12.5525 17.7061 12.0002C17.7061 11.4479 17.2583 11.0002 16.7061 11.0002L10.0752 11.0002L10.0752 13.0001L10.0615 13.0001Z" fill="#2C1DFE"/>
</svg>