<svg width="24" height="24" viewBox="0 0 24 24" fill="none" xmlns="http://www.w3.org/2000/svg">
<path fill-rule="evenodd" clip-rule="evenodd" d="M14.6471 5.7001C14.6471 5.14314 14.424 4.609 14.0268 4.21517C13.6297 3.82135 13.091 3.6001 12.5294 3.6001H5.11765C4.55601 3.6001 4.01738 3.82135 3.62024 4.21517C3.22311 4.609 3 5.14314 3 5.7001V18.3001C3 18.8571 3.22311 19.3912 3.62024 19.785C4.01738 20.1788 4.55601 20.4001 5.11765 20.4001H12.5294C13.091 20.4001 13.6297 20.1788 14.0268 19.785C14.424 19.3912 14.6471 18.8571 14.6471 18.3001V13.0001H18.2775L16.8254 14.44C16.4333 14.8289 16.4306 15.4621 16.8195 15.8542C17.2084 16.2464 17.8416 16.249 18.2337 15.8602L21.4102 12.7102C21.5995 12.5224 21.706 12.2668 21.706 12.0001C21.706 11.7334 21.5995 11.4778 21.4102 11.29L18.2337 8.14004C17.8416 7.75115 17.2084 7.7538 16.8195 8.14596C16.4306 8.53811 16.4333 9.17127 16.8254 9.56016L18.2775 11.0001H14.6471V5.7001ZM14.6445 11.0001L8 11C7.44772 11 7 11.4477 7 12C7 12.5523 7.44772 13 8 13H14.6309V11.0001H14.6445Z" fill="white"/>
</svg>
