<svg width="30" height="30" viewBox="0 0 30 30" fill="none" xmlns="http://www.w3.org/2000/svg">
<rect width="30" height="30" rx="15" fill="#2C1DFE" fill-opacity="0.1"/>
<path d="M7.80986 9.89803L7.80976 9.89814C6.96978 10.759 6.5 11.9238 6.5 13.136C6.5 14.3481 6.96978 15.5129 7.80976 16.3738L7.80979 16.3738L14.6172 23.3492L14.9751 23.7159L15.3329 23.3492L22.1374 16.3769C22.564 15.9539 22.9037 15.449 23.1373 14.8917C23.3716 14.3331 23.4947 13.7327 23.4998 13.1255C23.505 12.5183 23.3921 11.9158 23.1674 11.3532C22.9427 10.7905 22.6105 10.2785 22.1898 9.84744C21.769 9.41631 21.2679 9.07469 20.7154 8.84312C20.163 8.61155 19.5706 8.49485 18.9729 8.50017C18.3753 8.50549 17.785 8.63272 17.2366 8.87407C16.6896 9.1148 16.1956 9.46408 15.7829 9.90102L14.9751 10.7279L14.1644 9.89803C14.1643 9.898 14.1643 9.89797 14.1643 9.89794C13.3236 9.03701 12.1811 8.55108 10.9871 8.55108C9.7931 8.55108 8.6505 9.03705 7.80986 9.89803Z" fill="#EA4335" stroke="#EA4335"/>
</svg>