<svg width="21" height="20" viewBox="0 0 21 20" fill="none" xmlns="http://www.w3.org/2000/svg">
  <rect x="0.5" width="20" height="20" rx="10" fill="white"/>
  <path d="M6.5 7H8L8.70711 6.29289C8.89464 6.10536 9.149 6 9.41421 6H11.5858C11.851 6 12.1054 6.10536 12.2929 6.29289L13 7H14.5C14.7652 7 15.0196 7.10536 15.2071 7.29289C15.3946 7.48043 15.5 7.73478 15.5 8V14C15.5 14.2652 15.3946 14.5196 15.2071 14.7071C15.0196 14.8946 14.7652 15 14.5 15H6.5C6.23478 15 5.98043 14.8946 5.79289 14.7071C5.60536 14.5196 5.5 14.2652 5.5 14V8C5.5 7.73478 5.60536 7.48043 5.79289 7.29289C5.98043 7.10536 6.23478 7 6.5 7ZM10.5 8.5C9.83696 8.5 9.20107 8.76339 8.73223 9.23223C8.26339 9.70107 8 10.337 8 11C8 11.663 8.26339 12.2989 8.73223 12.7678C9.20107 13.2366 9.83696 13.5 10.5 13.5C11.163 13.5 11.7989 13.2366 12.2678 12.7678C12.7366 12.2989 13 11.663 13 11C13 10.337 12.7366 9.70107 12.2678 9.23223C11.7989 8.76339 11.163 8.5 10.5 8.5ZM10.5 9.5C10.8978 9.5 11.2794 9.65804 11.5607 9.93934C11.842 10.2206 12 10.6022 12 11C12 11.3978 11.842 11.7794 11.5607 12.0607C11.2794 12.342 10.8978 12.5 10.5 12.5C10.1022 12.5 9.72064 12.342 9.43934 12.0607C9.15804 11.7794 9 11.3978 9 11C9 10.6022 9.15804 10.2206 9.43934 9.93934C9.72064 9.65804 10.1022 9.5 10.5 9.5Z" fill="#637381"/>
</svg>