<svg width="20" height="14" viewBox="0 0 20 14" fill="none" xmlns="http://www.w3.org/2000/svg">
<path d="M8.58033 0.307541C8.74751 0.341172 8.75328 0.573006 8.59434 0.634785C6.04617 1.62523 4.23999 4.10169 4.23999 7.00001C4.23999 9.89832 6.04617 12.3748 8.59434 13.3652C8.75328 13.427 8.74751 13.6588 8.58033 13.6925C8.14279 13.7805 7.69012 13.8267 7.22666 13.8267C3.4564 13.8267 0.399994 10.7703 0.399994 7.00001C0.399994 3.22974 3.4564 0.17334 7.22666 0.17334C7.69012 0.17334 8.14279 0.219524 8.58033 0.307541Z" fill="#3056D3"/>
<path d="M19.6 7.00001C19.6 10.7703 16.5436 13.8267 12.7733 13.8267C9.00306 13.8267 5.94666 10.7703 5.94666 7.00001C5.94666 3.22974 9.00306 0.17334 12.7733 0.17334C16.5436 0.17334 19.6 3.22974 19.6 7.00001Z" fill="#3056D3"/>
</svg>