<svg width="22" height="24" viewBox="0 0 22 24" fill="none" xmlns="http://www.w3.org/2000/svg">
  <path fill-rule="evenodd" clip-rule="evenodd" d="M3.48943 6.20635C4.31455 5.30649 5.43351 4.80097 6.60023 4.80097C7.76695 4.80097 8.88591 5.30649 9.71103 6.20635L11.0002 7.61155L12.2894 6.20635C12.6953 5.7479 13.1808 5.38223 13.7177 5.13066C14.2545 4.8791 14.8318 4.74669 15.4161 4.74115C16.0003 4.73561 16.5797 4.85706 17.1204 5.09841C17.6612 5.33975 18.1524 5.69617 18.5656 6.14685C18.9787 6.59754 19.3054 7.13347 19.5266 7.72337C19.7479 8.31327 19.8592 8.94533 19.8541 9.58268C19.8491 10.22 19.7277 10.8499 19.4971 11.4355C19.2665 12.0211 18.9313 12.5508 18.511 12.9935L11.0002 21.1883L3.48943 12.9935C2.66456 12.0934 2.20117 10.8727 2.20117 9.59995C2.20117 8.32716 2.66456 7.10648 3.48943 6.20635Z" fill="#2C1DFE"/>
</svg>
