<svg width="20" height="20" viewBox="0 0 20 20" fill="none" xmlns="http://www.w3.org/2000/svg">
<path fill-rule="evenodd" clip-rule="evenodd" d="M2 10C2 5.58172 5.58172 2 10 2C14.4183 2 18 5.58172 18 10C18 14.4183 14.4183 18 10 18C5.58172 18 2 14.4183 2 10ZM14.2071 8.70711C14.5976 8.31658 14.5976 7.68342 14.2071 7.29289C13.8166 6.90237 13.1834 6.90237 12.7929 7.29289L9 11.0858L7.70711 9.79289C7.31658 9.40237 6.68342 9.40237 6.29289 9.79289C5.90237 10.1834 5.90237 10.8166 6.29289 11.2071L8.29289 13.2071C8.68342 13.5976 9.31658 13.5976 9.70711 13.2071L14.2071 8.70711Z" fill="#019939"/>
</svg>