<svg width="170" height="42" viewBox="0 0 170 42" fill="none" xmlns="http://www.w3.org/2000/svg">
  <g clip-path="url(#clip0_434_1957)">
  <path d="M51.8604 28.6385H63.8124V25.0385H56.1084V11.4785H51.8604V28.6385Z" fill="#4F4D55"/>
  <path d="M70.8928 26.2377C69.1888 26.2377 68.3008 24.7497 68.3008 22.5177C68.3008 20.2857 69.1888 18.7737 70.8928 18.7737C72.5968 18.7737 73.5088 20.2857 73.5088 22.5177C73.5088 24.7497 72.5968 26.2377 70.8928 26.2377ZM70.9168 29.0217C74.8768 29.0217 77.4688 26.2137 77.4688 22.5177C77.4688 18.8217 74.8768 16.0137 70.9168 16.0137C66.9808 16.0137 64.3408 18.8217 64.3408 22.5177C64.3408 26.2137 66.9808 29.0217 70.9168 29.0217Z" fill="#4F4D55"/>
  <path d="M84.3236 32.8862C86.1476 32.8862 87.7556 32.4782 88.8356 31.5182C89.8196 30.6302 90.4676 29.2862 90.4676 27.4382V16.3502H86.7236V17.6702H86.6756C85.9556 16.6382 84.8516 15.9902 83.2196 15.9902C80.1716 15.9902 78.0596 18.5342 78.0596 22.1342C78.0596 25.9022 80.6276 27.9662 83.3876 27.9662C84.8756 27.9662 85.8116 27.3662 86.5316 26.5502H86.6276V27.7742C86.6276 29.2622 85.9316 30.1262 84.2756 30.1262C82.9796 30.1262 82.3316 29.5742 82.1156 28.9262H78.3236C78.7076 31.4942 80.9396 32.8862 84.3236 32.8862ZM84.2996 25.0622C82.8356 25.0622 81.8756 23.8622 81.8756 22.0142C81.8756 20.1422 82.8356 18.9422 84.2996 18.9422C85.9316 18.9422 86.7956 20.3342 86.7956 21.9902C86.7956 23.7182 86.0036 25.0622 84.2996 25.0622Z" fill="#4F4D55"/>
  <path d="M98.1663 26.2377C96.4623 26.2377 95.5743 24.7497 95.5743 22.5177C95.5743 20.2857 96.4623 18.7737 98.1663 18.7737C99.8703 18.7737 100.782 20.2857 100.782 22.5177C100.782 24.7497 99.8703 26.2377 98.1663 26.2377ZM98.1903 29.0217C102.15 29.0217 104.742 26.2137 104.742 22.5177C104.742 18.8217 102.15 16.0137 98.1903 16.0137C94.2543 16.0137 91.6143 18.8217 91.6143 22.5177C91.6143 26.2137 94.2543 29.0217 98.1903 29.0217Z" fill="#4F4D55"/>
  <path d="M105.884 28.6375H109.796V16.3495H105.884V28.6375ZM105.884 14.6455H109.796V11.4775H105.884V14.6455Z" fill="#4F4D55"/>
  <path d="M111.494 32.6942H115.406V27.3662H115.454C116.222 28.3982 117.35 29.0222 118.934 29.0222C122.15 29.0222 124.286 26.4782 124.286 22.4942C124.286 18.7982 122.294 15.9902 119.03 15.9902C117.35 15.9902 116.15 16.7342 115.31 17.8382H115.238V16.3502H111.494V32.6942ZM117.926 25.9982C116.246 25.9982 115.286 24.6302 115.286 22.6382C115.286 20.6462 116.15 19.1342 117.854 19.1342C119.534 19.1342 120.326 20.5262 120.326 22.6382C120.326 24.7262 119.414 25.9982 117.926 25.9982Z" fill="#4F4D55"/>
  <path d="M130.655 29.0222C133.871 29.0222 136.247 27.6302 136.247 24.9422C136.247 21.7982 133.703 21.2462 131.543 20.8862C129.983 20.5982 128.591 20.4782 128.591 19.6142C128.591 18.8462 129.335 18.4862 130.295 18.4862C131.375 18.4862 132.119 18.8222 132.263 19.9262H135.863C135.671 17.5022 133.799 15.9902 130.319 15.9902C127.415 15.9902 125.015 17.3342 125.015 19.9262C125.015 22.8062 127.295 23.3822 129.431 23.7422C131.063 24.0302 132.551 24.1502 132.551 25.2542C132.551 26.0462 131.807 26.4782 130.631 26.4782C129.335 26.4782 128.519 25.8782 128.375 24.6542H124.679C124.799 27.3662 127.055 29.0222 130.655 29.0222Z" fill="#4F4D55"/>
  <path d="M141.561 28.9976C143.265 28.9976 144.345 28.3256 145.233 27.1256H145.305V28.6376H149.049V16.3496H145.137V23.2136C145.137 24.6776 144.321 25.6856 142.977 25.6856C141.729 25.6856 141.129 24.9416 141.129 23.5976V16.3496H137.241V24.4136C137.241 27.1496 138.729 28.9976 141.561 28.9976Z" fill="#4F4D55"/>
  <path d="M150.75 28.6382H154.662V21.7502C154.662 20.2862 155.382 19.2542 156.606 19.2542C157.782 19.2542 158.334 20.0222 158.334 21.3422V28.6382H162.246V21.7502C162.246 20.2862 162.942 19.2542 164.19 19.2542C165.366 19.2542 165.918 20.0222 165.918 21.3422V28.6382H169.83V20.6462C169.83 17.8862 168.438 15.9902 165.654 15.9902C164.07 15.9902 162.75 16.6622 161.79 18.1502H161.742C161.118 16.8302 159.894 15.9902 158.286 15.9902C156.51 15.9902 155.334 16.8302 154.566 18.1022H154.494V16.3502H150.75V28.6382Z" fill="#4F4D55"/>
  <path fill-rule="evenodd" clip-rule="evenodd" d="M20.6836 40.6386C31.7293 40.6386 40.6836 31.6843 40.6836 20.6386C40.6836 9.59298 31.7293 0.638672 20.6836 0.638672C9.63788 0.638672 0.683594 9.59298 0.683594 20.6386C0.683594 31.6843 9.63788 40.6386 20.6836 40.6386ZM26.9229 9.95551C27.2266 8.87672 26.1797 8.2388 25.2236 8.91997L11.8767 18.4282C10.8398 19.1669 11.0029 20.6386 12.1217 20.6386H15.6363V20.6114H22.4861L16.9048 22.5807L14.4443 31.3218C14.1406 32.4006 15.1874 33.0385 16.1436 32.3573L29.4905 22.8491C30.5274 22.1104 30.3642 20.6386 29.2455 20.6386H23.9157L26.9229 9.95551Z" fill="#4F4D55"/>
  </g>
  <defs>
  <clipPath id="clip0_434_1957">
  <rect width="170" height="41" fill="white" transform="translate(0 0.5)"/>
  </clipPath>
  </defs>
</svg>
