<svg width="170" height="42" viewBox="0 0 170 42" fill="none" xmlns="http://www.w3.org/2000/svg">
  <g clip-path="url(#clip0_434_1946)">
  <path d="M51.2773 29.8231H63.2293V26.2231H55.5253V12.6631H51.2773V29.8231Z" fill="#4F4D55"/>
  <path d="M70.3108 27.4232C68.6068 27.4232 67.7188 25.9352 67.7188 23.7032C67.7188 21.4712 68.6068 19.9592 70.3108 19.9592C72.0148 19.9592 72.9268 21.4712 72.9268 23.7032C72.9268 25.9352 72.0148 27.4232 70.3108 27.4232ZM70.3348 30.2072C74.2948 30.2072 76.8868 27.3992 76.8868 23.7032C76.8868 20.0072 74.2948 17.1992 70.3348 17.1992C66.3988 17.1992 63.7588 20.0072 63.7588 23.7032C63.7588 27.3992 66.3988 30.2072 70.3348 30.2072Z" fill="#4F4D55"/>
  <path d="M83.7406 34.0718C85.5646 34.0718 87.1726 33.6638 88.2526 32.7038C89.2366 31.8158 89.8846 30.4718 89.8846 28.6238V17.5358H86.1406V18.8558H86.0926C85.3726 17.8238 84.2686 17.1758 82.6366 17.1758C79.5886 17.1758 77.4766 19.7198 77.4766 23.3198C77.4766 27.0878 80.0446 29.1518 82.8046 29.1518C84.2926 29.1518 85.2286 28.5518 85.9486 27.7358H86.0446V28.9598C86.0446 30.4478 85.3486 31.3118 83.6926 31.3118C82.3966 31.3118 81.7486 30.7598 81.5326 30.1118H77.7406C78.1246 32.6798 80.3566 34.0718 83.7406 34.0718ZM83.7166 26.2478C82.2526 26.2478 81.2926 25.0478 81.2926 23.1998C81.2926 21.3278 82.2526 20.1278 83.7166 20.1278C85.3486 20.1278 86.2126 21.5198 86.2126 23.1758C86.2126 24.9038 85.4206 26.2478 83.7166 26.2478Z" fill="#4F4D55"/>
  <path d="M97.5832 27.4232C95.8792 27.4232 94.9912 25.9352 94.9912 23.7032C94.9912 21.4712 95.8792 19.9592 97.5832 19.9592C99.2872 19.9592 100.199 21.4712 100.199 23.7032C100.199 25.9352 99.2872 27.4232 97.5832 27.4232ZM97.6072 30.2072C101.567 30.2072 104.159 27.3992 104.159 23.7032C104.159 20.0072 101.567 17.1992 97.6072 17.1992C93.6712 17.1992 91.0312 20.0072 91.0312 23.7032C91.0312 27.3992 93.6712 30.2072 97.6072 30.2072Z" fill="#4F4D55"/>
  <path d="M105.302 29.8231H109.214V17.5351H105.302V29.8231ZM105.302 15.8311H109.214V12.6631H105.302V15.8311Z" fill="#4F4D55"/>
  <path d="M110.911 33.8788H114.823V28.5508H114.871C115.639 29.5828 116.767 30.2068 118.351 30.2068C121.567 30.2068 123.703 27.6628 123.703 23.6788C123.703 19.9828 121.711 17.1748 118.447 17.1748C116.767 17.1748 115.567 17.9188 114.727 19.0228H114.655V17.5348H110.911V33.8788ZM117.343 27.1828C115.663 27.1828 114.703 25.8148 114.703 23.8228C114.703 21.8308 115.567 20.3188 117.271 20.3188C118.951 20.3188 119.743 21.7108 119.743 23.8228C119.743 25.9108 118.831 27.1828 117.343 27.1828Z" fill="#4F4D55"/>
  <path d="M130.072 30.2078C133.288 30.2078 135.664 28.8158 135.664 26.1278C135.664 22.9838 133.12 22.4318 130.96 22.0718C129.4 21.7838 128.008 21.6638 128.008 20.7998C128.008 20.0318 128.752 19.6718 129.712 19.6718C130.792 19.6718 131.536 20.0078 131.68 21.1118H135.28C135.088 18.6878 133.216 17.1758 129.736 17.1758C126.832 17.1758 124.432 18.5198 124.432 21.1118C124.432 23.9918 126.712 24.5678 128.848 24.9278C130.48 25.2158 131.968 25.3358 131.968 26.4398C131.968 27.2318 131.224 27.6638 130.048 27.6638C128.752 27.6638 127.936 27.0638 127.792 25.8398H124.096C124.216 28.5518 126.472 30.2078 130.072 30.2078Z" fill="#4F4D55"/>
  <path d="M140.978 30.1832C142.682 30.1832 143.762 29.5112 144.65 28.3112H144.722V29.8232H148.466V17.5352H144.554V24.3992C144.554 25.8632 143.738 26.8712 142.394 26.8712C141.146 26.8712 140.546 26.1272 140.546 24.7832V17.5352H136.658V25.5992C136.658 28.3352 138.146 30.1832 140.978 30.1832Z" fill="#4F4D55"/>
  <path d="M150.168 29.8228H154.08V22.9348C154.08 21.4708 154.8 20.4388 156.024 20.4388C157.2 20.4388 157.752 21.2068 157.752 22.5268V29.8228H161.664V22.9348C161.664 21.4708 162.36 20.4388 163.608 20.4388C164.784 20.4388 165.336 21.2068 165.336 22.5268V29.8228H169.248V21.8308C169.248 19.0708 167.856 17.1748 165.072 17.1748C163.488 17.1748 162.168 17.8468 161.208 19.3348H161.16C160.536 18.0148 159.312 17.1748 157.704 17.1748C155.928 17.1748 154.752 18.0148 153.984 19.2868H153.912V17.5348H150.168V29.8228Z" fill="#4F4D55"/>
  <path fill-rule="evenodd" clip-rule="evenodd" d="M20.1015 40.8232C31.1473 40.8232 40.1015 31.8689 40.1015 20.8232C40.1015 9.77754 31.1473 0.823242 20.1015 0.823242C9.05585 0.823242 0.101562 9.77754 0.101562 20.8232C0.101562 31.8689 9.05585 40.8232 20.1015 40.8232ZM23.1885 16.2758C24.8933 14.5709 24.8933 11.8068 23.1885 10.1019C21.4836 8.39702 18.7195 8.39702 17.0146 10.1019C15.3098 11.8068 15.3098 14.5709 17.0146 16.2758L20.1015 19.3627L23.1885 16.2758ZM24.649 23.9102C26.3539 25.6151 29.118 25.6151 30.8229 23.9102C32.5277 22.2053 32.5277 19.4412 30.8229 17.7363C29.118 16.0315 26.3539 16.0315 24.649 17.7363L21.5621 20.8233L24.649 23.9102ZM23.1885 31.5446C24.8933 29.8397 24.8933 27.0756 23.1885 25.3707L20.1015 22.2838L17.0146 25.3707C15.3098 27.0756 15.3098 29.8397 17.0146 31.5446C18.7195 33.2495 21.4836 33.2495 23.1885 31.5446ZM9.38019 23.9102C7.67535 22.2053 7.67535 19.4412 9.38019 17.7363C11.0851 16.0315 13.8492 16.0315 15.5541 17.7363L18.641 20.8233L15.5541 23.9102C13.8492 25.6151 11.0851 25.6151 9.38019 23.9102Z" fill="#4F4D55"/>
  </g>
  <defs>
  <clipPath id="clip0_434_1946">
  <rect width="170" height="41" fill="white" transform="translate(0 0.5)"/>
  </clipPath>
  </defs>
</svg>
