<svg width="167" height="42" viewBox="0 0 167 42" fill="none" xmlns="http://www.w3.org/2000/svg">
  <g clip-path="url(#clip0_434_1968)">
  <path d="M48.6309 29.2938H60.5829V25.6938H52.8789V12.1338H48.6309V29.2938Z" fill="#4F4D55"/>
  <path d="M67.6643 26.8939C65.9603 26.8939 65.0723 25.4059 65.0723 23.1739C65.0723 20.9419 65.9603 19.4299 67.6643 19.4299C69.3683 19.4299 70.2803 20.9419 70.2803 23.1739C70.2803 25.4059 69.3683 26.8939 67.6643 26.8939ZM67.6883 29.6779C71.6483 29.6779 74.2403 26.8699 74.2403 23.1739C74.2403 19.4779 71.6483 16.6699 67.6883 16.6699C63.7523 16.6699 61.1123 19.4779 61.1123 23.1739C61.1123 26.8699 63.7523 29.6779 67.6883 29.6779Z" fill="#4F4D55"/>
  <path d="M81.0941 33.5415C82.9181 33.5415 84.5261 33.1335 85.6061 32.1735C86.5901 31.2855 87.2381 29.9415 87.2381 28.0935V17.0055H83.4941V18.3255H83.4461C82.7261 17.2935 81.6221 16.6455 79.9901 16.6455C76.9421 16.6455 74.8301 19.1895 74.8301 22.7895C74.8301 26.5575 77.3981 28.6215 80.1581 28.6215C81.6461 28.6215 82.5821 28.0215 83.3021 27.2055H83.3981V28.4295C83.3981 29.9175 82.7021 30.7815 81.0461 30.7815C79.7501 30.7815 79.1021 30.2295 78.8861 29.5815H75.0941C75.4781 32.1495 77.7101 33.5415 81.0941 33.5415ZM81.0701 25.7175C79.6061 25.7175 78.6461 24.5175 78.6461 22.6695C78.6461 20.7975 79.6061 19.5975 81.0701 19.5975C82.7021 19.5975 83.5661 20.9895 83.5661 22.6455C83.5661 24.3735 82.7741 25.7175 81.0701 25.7175Z" fill="#4F4D55"/>
  <path d="M94.9368 26.8939C93.2328 26.8939 92.3448 25.4059 92.3448 23.1739C92.3448 20.9419 93.2328 19.4299 94.9368 19.4299C96.6408 19.4299 97.5528 20.9419 97.5528 23.1739C97.5528 25.4059 96.6408 26.8939 94.9368 26.8939ZM94.9608 29.6779C98.9208 29.6779 101.513 26.8699 101.513 23.1739C101.513 19.4779 98.9208 16.6699 94.9608 16.6699C91.0248 16.6699 88.3848 19.4779 88.3848 23.1739C88.3848 26.8699 91.0248 29.6779 94.9608 29.6779Z" fill="#4F4D55"/>
  <path d="M102.655 29.2938H106.567V17.0058H102.655V29.2938ZM102.655 15.3018H106.567V12.1338H102.655V15.3018Z" fill="#4F4D55"/>
  <path d="M108.264 33.3495H112.176V28.0215H112.224C112.992 29.0535 114.12 29.6775 115.704 29.6775C118.92 29.6775 121.056 27.1335 121.056 23.1495C121.056 19.4535 119.064 16.6455 115.8 16.6455C114.12 16.6455 112.92 17.3895 112.08 18.4935H112.008V17.0055H108.264V33.3495ZM114.696 26.6535C113.016 26.6535 112.056 25.2855 112.056 23.2935C112.056 21.3015 112.92 19.7895 114.624 19.7895C116.304 19.7895 117.096 21.1815 117.096 23.2935C117.096 25.3815 116.184 26.6535 114.696 26.6535Z" fill="#4F4D55"/>
  <path d="M127.426 29.6775C130.642 29.6775 133.018 28.2855 133.018 25.5975C133.018 22.4535 130.474 21.9015 128.314 21.5415C126.754 21.2535 125.362 21.1335 125.362 20.2695C125.362 19.5015 126.106 19.1415 127.066 19.1415C128.146 19.1415 128.89 19.4775 129.034 20.5815H132.634C132.442 18.1575 130.57 16.6455 127.09 16.6455C124.186 16.6455 121.786 17.9895 121.786 20.5815C121.786 23.4615 124.066 24.0375 126.202 24.3975C127.834 24.6855 129.322 24.8055 129.322 25.9095C129.322 26.7015 128.578 27.1335 127.402 27.1335C126.106 27.1335 125.29 26.5335 125.146 25.3095H121.45C121.57 28.0215 123.826 29.6775 127.426 29.6775Z" fill="#4F4D55"/>
  <path d="M138.331 29.6539C140.035 29.6539 141.115 28.9819 142.003 27.7819H142.075V29.2939H145.819V17.0059H141.907V23.8699C141.907 25.3339 141.091 26.3419 139.747 26.3419C138.499 26.3419 137.899 25.5979 137.899 24.2539V17.0059H134.011V25.0699C134.011 27.8059 135.499 29.6539 138.331 29.6539Z" fill="#4F4D55"/>
  <path d="M147.521 29.2935H151.433V22.4055C151.433 20.9415 152.153 19.9095 153.377 19.9095C154.553 19.9095 155.105 20.6775 155.105 21.9975V29.2935H159.017V22.4055C159.017 20.9415 159.713 19.9095 160.961 19.9095C162.137 19.9095 162.689 20.6775 162.689 21.9975V29.2935H166.601V21.3015C166.601 18.5415 165.209 16.6455 162.425 16.6455C160.841 16.6455 159.521 17.3175 158.561 18.8055H158.513C157.889 17.4855 156.665 16.6455 155.057 16.6455C153.281 16.6455 152.105 17.4855 151.337 18.7575H151.265V17.0055H147.521V29.2935Z" fill="#4F4D55"/>
  <path fill-rule="evenodd" clip-rule="evenodd" d="M8.65429 4.39181C7.22363 5.39217 5.92993 6.57492 4.80688 7.90634C9.39618 7.48027 15.2267 8.17599 21.9959 11.5606C29.2245 15.1748 35.0453 15.297 39.0963 14.5156C38.7287 13.4027 38.2659 12.3331 37.7178 11.3163C33.0805 11.8054 27.1355 11.158 20.2071 7.69392C15.8075 5.49412 11.9293 4.58795 8.65429 4.39181ZM35.0089 7.46059C31.3468 3.36894 26.0249 0.793945 20.1015 0.793945C18.362 0.793945 16.6742 1.01605 15.0652 1.43343C17.2444 2.02803 19.5594 2.89793 21.9959 4.11621C27.0685 6.65247 31.4479 7.4691 35.0089 7.46059ZM39.9624 18.422C35.0684 19.3884 28.3103 19.1899 20.2071 15.1383C12.6315 11.3505 6.60199 11.3982 2.53546 12.3019C2.32556 12.3485 2.1206 12.3975 1.92059 12.4485C1.38818 13.6064 0.963196 14.824 0.658264 16.0884C0.983948 16.0014 1.32049 15.9187 1.66772 15.8415C6.60113 14.7452 13.5716 14.7928 21.9959 19.005C29.5716 22.7928 35.6011 22.7451 39.6677 21.8414C39.807 21.8105 39.9443 21.7785 40.0793 21.7455C40.0941 21.4302 40.1015 21.1129 40.1015 20.7939C40.1015 19.9914 40.0543 19.1999 39.9624 18.422ZM39.4263 25.9662C34.5798 26.8135 28.0185 26.4883 20.2071 22.5827C12.6315 18.7949 6.60199 18.8426 2.53546 19.7463C1.63281 19.9468 0.820801 20.1911 0.104493 20.449C0.10254 20.5637 0.101562 20.6787 0.101562 20.7939C0.101562 31.8396 9.05585 40.7939 20.1015 40.7939C29.3586 40.7939 37.1468 34.5048 39.4263 25.9662Z" fill="#4F4D55"/>
  </g>
  <defs>
  <clipPath id="clip0_434_1968">
  <rect width="167" height="41" fill="white" transform="translate(0 0.5)"/>
  </clipPath>
  </defs>
</svg>