<svg width="136" height="36" viewBox="0 0 136 36" fill="none" xmlns="http://www.w3.org/2000/svg">
<path d="M89.2197 12.1302V11.8002C89.2197 11.6902 89.2197 11.5802 89.2197 11.4702V12.1302Z" fill="#2C1DFE"/>
<path d="M88.2897 0.690176C88.0397 0.690176 87.8097 0.790176 87.6297 0.970176C87.4597 1.15018 87.3597 1.39018 87.3597 1.64018V5.93018C86.4297 4.62018 85.2097 3.55018 83.7997 2.81018C82.3797 2.07018 80.8097 1.69018 79.2197 1.69018C76.5697 1.69018 74.0197 2.76018 72.1497 4.66018C70.2697 6.56018 69.2197 9.13018 69.2197 11.8102C69.2197 14.4902 70.2797 17.0602 72.1497 18.9602C74.0297 20.8602 76.5697 21.9202 79.2197 21.9302C80.8097 21.9302 82.3797 21.5402 83.7997 20.8102C85.2197 20.0702 86.4397 19.0002 87.3597 17.6902V21.1002C87.3597 21.3502 87.4597 21.5902 87.6297 21.7702C87.7997 21.9502 88.0397 22.0502 88.2897 22.0502C88.5397 22.0502 88.7697 21.9502 88.9497 21.7702C89.1197 21.5902 89.2197 21.3502 89.2197 21.1002V1.63018C89.2197 1.38018 89.1197 1.14018 88.9497 0.960176C88.7797 0.780176 88.5397 0.680176 88.2897 0.680176V0.690176ZM79.2197 20.0402C77.0597 20.0402 74.9897 19.1702 73.4597 17.6202C71.9297 16.0802 71.0697 13.9802 71.0697 11.8002C71.0697 9.62018 71.9297 7.52018 73.4597 5.98018C74.9897 4.44018 77.0597 3.57018 79.2197 3.56018C81.3297 3.56018 83.3597 4.39018 84.8797 5.88018C86.3997 7.36018 87.2897 9.38018 87.3597 11.5202V12.0802C87.2897 14.2102 86.3997 16.2402 84.8797 17.7202C83.3597 19.2002 81.3297 20.0302 79.2197 20.0402Z" fill="#2C1DFE"/>
<path d="M125.99 1.68018C123.34 1.68018 120.79 2.75018 118.92 4.65018C117.04 6.55018 115.99 9.12018 115.99 11.8002C115.99 14.4802 117.05 17.0502 118.92 18.9502C120.8 20.8502 123.34 21.9102 125.99 21.9202C128.64 21.9202 131.19 20.8502 133.06 18.9502C134.94 17.0502 135.99 14.4802 135.99 11.8002C135.99 9.12018 134.93 6.55018 133.06 4.65018C131.18 2.75018 128.64 1.69018 125.99 1.68018ZM125.99 20.0402C123.83 20.0402 121.76 19.1702 120.23 17.6202C118.7 16.0802 117.84 13.9802 117.84 11.8002C117.84 9.62018 118.7 7.52018 120.23 5.98018C121.76 4.44018 123.83 3.57018 125.99 3.56018C128.15 3.56018 130.22 4.43018 131.75 5.97018C133.28 7.51018 134.14 9.61018 134.14 11.7902C134.14 13.9702 133.28 16.0702 131.75 17.6102C130.22 19.1502 128.15 20.0202 125.99 20.0302V20.0402Z" fill="#2C1DFE"/>
<path d="M42.6998 18.8902C41.7698 19.8502 40.6598 20.6202 39.4298 21.1402C38.1998 21.6602 36.8798 21.9302 35.5498 21.9202C32.8998 21.9202 30.3498 20.8502 28.4798 18.9502C26.5998 17.0502 25.5498 14.4802 25.5498 11.8002C25.5498 9.12018 26.6098 6.55018 28.4798 4.65018C30.3598 2.75018 32.8998 1.69018 35.5498 1.68018C36.8798 1.68018 38.1898 1.94018 39.4098 2.46018C40.6298 2.98018 41.7398 3.74018 42.6698 4.69018C42.8398 4.87018 42.9398 5.11018 42.9398 5.36018C42.9398 5.61018 42.8398 5.85018 42.6598 6.02018C42.5698 6.11018 42.4698 6.18018 42.3598 6.22018C42.2498 6.27018 42.1298 6.29018 41.9998 6.29018C41.8798 6.29018 41.7598 6.26018 41.6398 6.22018C41.5298 6.17018 41.4298 6.10018 41.3398 6.01018C40.5798 5.23018 39.6798 4.61018 38.6898 4.19018C37.6898 3.77018 36.6298 3.55018 35.5498 3.56018C33.3898 3.56018 31.3198 4.43018 29.7898 5.97018C28.2598 7.51018 27.3998 9.61018 27.3998 11.7902C27.3998 13.9702 28.2598 16.0702 29.7898 17.6102C31.3198 19.1502 33.3898 20.0202 35.5498 20.0302C36.6298 20.0302 37.7098 19.8202 38.7098 19.3902C39.7098 18.9702 40.6098 18.3402 41.3698 17.5602C41.4598 17.4702 41.5598 17.4002 41.6698 17.3502C41.7798 17.3002 41.8998 17.2802 42.0298 17.2702C42.1498 17.2702 42.2698 17.2902 42.3898 17.3402C42.4998 17.3902 42.6098 17.4502 42.6898 17.5402C42.7698 17.6302 42.8498 17.7302 42.8898 17.8402C42.9398 17.9502 42.9598 18.0802 42.9598 18.2002C42.9598 18.3202 42.9398 18.4502 42.8898 18.5602C42.8398 18.6702 42.7798 18.7802 42.6898 18.8702L42.6998 18.8902Z" fill="#2C1DFE"/>
<path d="M12.55 1.68018C9.9 1.68018 7.35 2.75018 5.48 4.65018C3.6 6.55018 2.55 9.12018 2.55 11.8002C2.55 14.2202 3.4 16.5502 4.96 18.3802L0.27 23.1302C0.18 23.2202 0.12 23.3202 0.07 23.4402C0.02 23.5502 0 23.6802 0 23.8002C0 23.9202 0.02 24.0502 0.07 24.1602C0.12 24.2702 0.19 24.3802 0.27 24.4702C0.36 24.5602 0.46 24.6302 0.58 24.6702C0.69 24.7202 0.82 24.7402 0.94 24.7402C1.06 24.7402 1.18 24.7202 1.3 24.6702C1.41 24.6202 1.52 24.5602 1.61 24.4702L6.31 19.7202H6.32C8.09 21.1502 10.3 21.9402 12.58 21.9402C15.23 21.9402 17.78 20.8702 19.65 18.9702C21.53 17.0702 22.58 14.5002 22.58 11.8202C22.58 9.13018 21.52 6.56018 19.64 4.66018C17.76 2.76018 15.21 1.70018 12.56 1.70018L12.55 1.68018ZM4.79 14.2902C4.54 13.4802 4.41 12.6402 4.41 11.7902C4.41 9.61018 5.27 7.51018 6.8 5.97018C8.33 4.43018 10.4 3.56018 12.56 3.56018C14.72 3.56018 16.79 4.43018 18.32 5.98018C19.85 7.52018 20.71 9.62018 20.71 11.8002C20.71 12.9102 20.49 14.0102 20.05 15.0402C19.52 15.2802 17.28 16.0502 12.66 14.7302V12.5102L16.54 10.7202C16.68 10.6502 16.81 10.5502 16.9 10.4202C16.99 10.2902 17.05 10.1402 17.07 9.98018C17.09 9.82018 17.07 9.66018 17 9.51018C16.94 9.36018 16.84 9.23018 16.71 9.13018L12.28 5.66018C12.14 5.55018 11.98 5.49018 11.8 5.47018C11.63 5.45018 11.45 5.48018 11.3 5.56018C11.14 5.64018 11.01 5.76018 10.92 5.91018C10.83 6.06018 10.78 6.23018 10.78 6.41018V14.2902C8.8 13.9102 6.76 13.9202 4.78 14.3102L4.79 14.2902ZM12.66 10.4402V8.31018L14.37 9.65018L12.66 10.4402ZM12.56 20.0302C11.16 20.0302 9.78 19.6602 8.56 18.9702C7.34 18.2702 6.32 17.2702 5.59 16.0602C7.48 15.7602 9.41 15.8402 11.28 16.3002C11.43 16.3402 11.59 16.3802 11.75 16.4202C11.83 16.4402 11.9 16.4602 11.98 16.4902C14.24 17.1502 16.03 17.3702 17.41 17.3702C17.81 17.3702 18.22 17.3502 18.62 17.3102C17.86 18.1702 16.92 18.8602 15.88 19.3302C14.84 19.8002 13.71 20.0402 12.57 20.0402L12.56 20.0302Z" fill="#2C1DFE"/>
<path d="M87.3701 11.8V12.08V11.52C87.3701 11.61 87.3701 11.71 87.3701 11.8Z" fill="#2C1DFE"/>
<path d="M112.96 21.0602C112.96 21.3102 112.86 21.5502 112.69 21.7302C112.51 21.9102 112.28 22.0102 112.03 22.0102C111.78 22.0102 111.55 21.9102 111.37 21.7302C111.2 21.5502 111.1 21.3102 111.1 21.0602L111.08 11.8002C111.08 9.62018 110.22 7.52018 108.69 5.98018C107.16 4.44018 105.09 3.57018 102.93 3.56018C100.77 3.56018 98.6999 4.43018 97.1699 5.98018C95.6399 7.52018 94.7799 9.62018 94.7799 11.8002V21.0902C94.7799 21.3402 94.6799 21.5802 94.5099 21.7602C94.3399 21.9402 94.0999 22.0402 93.8499 22.0402C93.5999 22.0402 93.3699 21.9402 93.1899 21.7602C93.0199 21.5802 92.9199 21.3402 92.9199 21.0902V1.63018C92.9199 1.38018 93.0199 1.14018 93.1899 0.960176C93.3599 0.780176 93.5999 0.680176 93.8499 0.680176C94.0999 0.680176 94.3299 0.780176 94.5099 0.960176C94.6799 1.14018 94.7799 1.38018 94.7799 1.63018V5.93018C95.6999 4.62018 96.9299 3.55018 98.3399 2.81018C99.7599 2.07018 101.33 1.69018 102.92 1.68018C105.57 1.68018 108.12 2.75018 109.99 4.65018C111.86 6.55018 112.92 9.12018 112.93 11.8002L112.95 21.0602H112.96Z" fill="#2C1DFE"/>
<path d="M63.5505 4.71006C62.6205 3.78006 61.5205 3.04006 60.3005 2.53006C59.0905 2.03006 57.7905 1.77006 56.4805 1.78006C53.8605 1.78006 51.3405 2.83006 49.4705 4.69006C47.6005 6.55006 46.5205 9.08006 46.4805 11.7301C46.4805 11.7701 46.4805 11.8001 46.4805 11.8401C46.4805 11.8701 46.4805 11.9101 46.4805 11.9401C46.4905 14.6201 47.5505 17.1801 49.4305 19.0701C51.3005 20.9601 53.8405 22.0201 56.4905 22.0201C57.8105 22.0201 59.1205 21.7601 60.3405 21.2501C61.5605 20.7401 62.6705 19.9801 63.6005 19.0301C63.6905 18.9401 63.7505 18.8401 63.8005 18.7201C63.8505 18.6101 63.8705 18.4801 63.8705 18.3601C63.8705 18.2401 63.8505 18.1101 63.8005 18.0001C63.7505 17.8901 63.6805 17.7801 63.6005 17.6901C63.5105 17.6001 63.4105 17.5301 63.3005 17.4901C63.1905 17.4401 63.0705 17.4201 62.9405 17.4201C62.8105 17.4201 62.7005 17.4401 62.5805 17.4901C62.4705 17.5401 62.3605 17.6101 62.2805 17.6901C61.5205 18.4701 60.6205 19.0801 59.6305 19.5001C58.6405 19.9201 57.5705 20.1301 56.4905 20.1301C54.4805 20.1301 52.5405 19.3801 51.0505 18.0201C49.5505 16.6601 48.6105 14.7901 48.3905 12.7701H65.5605C65.8105 12.7701 66.0405 12.6701 66.2205 12.4901C66.3905 12.3101 66.4905 12.0701 66.4905 11.8201C66.4905 10.5001 66.2305 9.19006 65.7305 7.96006C65.2305 6.74006 64.4905 5.63006 63.5605 4.70006L63.5505 4.71006ZM48.3905 10.9001C48.6305 8.90006 49.5905 7.07006 51.0805 5.73006C52.5705 4.40006 54.4905 3.66006 56.4805 3.66006C58.4705 3.66006 60.3905 4.39006 61.8805 5.73006C63.3705 7.06006 64.3305 8.90006 64.5605 10.9001H48.3905Z" fill="#2C1DFE"/>
<path d="M98.9095 30.7302C98.6995 30.5802 98.4495 30.4602 98.0895 30.3202C97.7995 30.2202 97.4895 30.1202 97.1295 30.0102C96.9395 29.9502 96.7395 29.8902 96.5295 29.8002C96.3295 29.7302 96.1695 29.6402 96.0395 29.5502C95.8995 29.4502 95.8095 29.3402 95.7195 29.1902C95.6395 29.0702 95.6095 28.9202 95.6095 28.7202C95.6095 28.5002 95.6595 28.3202 95.7495 28.1802C95.8395 28.0302 95.9595 27.9202 96.1295 27.8102C96.2995 27.7102 96.4695 27.6502 96.6395 27.6102C96.8695 27.5702 97.0495 27.5502 97.2095 27.5502C97.5795 27.5502 97.8695 27.6102 98.1195 27.7502C98.3695 27.8702 98.5895 28.0802 98.8195 28.4102C98.8795 28.4702 98.9695 28.5002 99.0595 28.4802C99.1295 28.4802 99.1995 28.4402 99.2495 28.3902C99.3095 28.3402 99.4295 28.2002 99.2995 27.9702C99.0895 27.6002 98.7995 27.3102 98.4295 27.1302C98.1695 27.0002 97.8895 26.9202 97.5995 26.8802V25.9802C97.5995 25.7702 97.4295 25.6102 97.2295 25.6102C97.0295 25.6102 96.8595 25.7802 96.8595 25.9802V26.8802C96.7095 26.9002 96.5595 26.9302 96.3895 26.9702C96.1295 27.0302 95.8695 27.1502 95.6495 27.3102C95.4295 27.4502 95.2395 27.6502 95.1095 27.8802C94.9595 28.1202 94.8895 28.3902 94.8895 28.7202C94.8895 29.0202 94.9495 29.2702 95.0695 29.4902C95.1895 29.6902 95.3495 29.8802 95.5495 30.0302C95.7595 30.1802 95.9795 30.3102 96.1995 30.4002C96.4295 30.5002 96.6795 30.5802 96.9395 30.6602C97.2395 30.7402 97.5295 30.8302 97.7795 30.9102C98.0595 31.0202 98.2695 31.1102 98.4295 31.2202C98.6095 31.3402 98.7395 31.4702 98.8395 31.6202C98.9295 31.7602 98.9795 31.9102 98.9795 32.1202C98.9795 32.3302 98.9395 32.5102 98.8495 32.6702C98.7395 32.8502 98.6095 32.9902 98.4595 33.1002C98.2695 33.2402 98.0895 33.3302 97.8995 33.3802C97.6895 33.4502 97.4695 33.4802 97.2495 33.4802C96.7895 33.4802 96.4195 33.4102 96.1195 33.2602C95.8195 33.1102 95.5795 32.8702 95.3995 32.5402C95.3295 32.4602 95.2495 32.4002 95.1495 32.3902C95.0795 32.3802 94.9995 32.3702 94.9095 32.4102C94.8295 32.4502 94.7695 32.5302 94.7495 32.6002C94.6995 32.7202 94.7495 32.8302 94.7795 32.9002C94.9895 33.3202 95.3195 33.6402 95.7595 33.8402C96.0795 34.0002 96.4395 34.1002 96.8495 34.1402V34.9502C96.8495 35.1602 97.0195 35.3202 97.2195 35.3202C97.4195 35.3202 97.5895 35.1502 97.5895 34.9502V34.1402C97.7795 34.1202 97.9795 34.0802 98.1695 34.0102C98.4695 33.9102 98.7295 33.7602 98.9495 33.5802C99.1895 33.3902 99.3595 33.1802 99.4895 32.9402C99.6195 32.6902 99.6895 32.4102 99.6895 32.1202C99.6895 31.7802 99.6195 31.5202 99.4695 31.2902C99.3295 31.0802 99.1395 30.8902 98.8995 30.7302H98.9095Z" fill="black"/>
<path d="M85.7495 32.5702C85.6795 32.6002 85.6095 32.6402 85.5395 32.7002C85.2795 32.9502 84.9795 33.1302 84.6495 33.2502C84.3395 33.3702 83.9995 33.4202 83.6395 33.4202C83.2295 33.4202 82.8295 33.3502 82.4795 33.1902C82.1395 33.0302 81.8295 32.8202 81.5795 32.5602C81.3295 32.3002 81.1295 31.9902 80.9795 31.6402C80.8395 31.2902 80.7595 30.9202 80.7595 30.5402C80.7595 30.5302 80.7595 30.5202 80.7595 30.5002C80.7595 30.4902 80.7595 30.4702 80.7595 30.4602C80.7595 30.0702 80.8295 29.7002 80.9795 29.3502C81.1295 29.0002 81.3295 28.6902 81.5795 28.4302C81.8295 28.1702 82.1395 27.9602 82.4795 27.8002C82.8195 27.6502 83.1895 27.5702 83.5795 27.5702C83.9595 27.5702 84.2995 27.6302 84.6295 27.7502C84.9595 27.8702 85.2595 28.0602 85.5295 28.3202C85.5895 28.3702 85.6595 28.4002 85.7295 28.4302C85.8095 28.4602 85.9195 28.4702 86.0595 28.3502C86.1395 28.2802 86.1795 28.1802 86.1795 28.0802C86.1795 27.9802 86.1395 27.8902 86.0595 27.8002C85.7595 27.4902 85.3895 27.2502 84.9495 27.0902C84.0495 26.7502 83.0495 26.7602 82.2095 27.1302C81.7795 27.3202 81.3895 27.5802 81.0695 27.9102C80.7495 28.2402 80.4895 28.6202 80.2995 29.0602C80.1095 29.5002 80.0195 29.9702 80.0195 30.4602C80.0195 30.4802 80.0195 30.5102 80.0195 30.5102V30.5702C80.0195 31.0602 80.1095 31.5302 80.2995 31.9702C80.4895 32.4002 80.7495 32.7902 81.0695 33.1102C81.3895 33.4302 81.7795 33.6902 82.2095 33.8802C82.6495 34.0702 83.1195 34.1602 83.6095 34.1602C84.0695 34.1602 84.5195 34.0802 84.9495 33.9102C85.3795 33.7402 85.7495 33.5002 86.0595 33.1902C86.1295 33.1102 86.1695 33.0202 86.1795 32.9202C86.1795 32.8102 86.1395 32.7202 86.0595 32.6502C85.9195 32.5202 85.7995 32.5302 85.7195 32.5602L85.7495 32.5702Z" fill="black"/>
<path d="M92.8195 27.9202C92.4895 27.6002 92.1095 27.3402 91.6695 27.1502C90.7895 26.7702 89.7095 26.7702 88.8295 27.1502C88.3895 27.3402 87.9995 27.6002 87.6695 27.9302C87.3395 28.2602 87.0695 28.6502 86.8795 29.0902C86.6895 29.5302 86.5895 30.0202 86.5895 30.5202C86.5895 31.0202 86.6895 31.5002 86.8795 31.9402C87.0695 32.3802 87.3395 32.7702 87.6695 33.1002C87.9995 33.4302 88.3895 33.6902 88.8295 33.8902C89.2695 34.0802 89.7495 34.1802 90.2495 34.1802C90.5795 34.1802 90.9095 34.1302 91.2195 34.0402C91.5295 33.9502 91.8195 33.8202 92.0895 33.6602C92.3595 33.5002 92.5995 33.3102 92.8195 33.0802C92.9395 32.9602 93.0595 32.8202 93.1595 32.6802V33.6902C93.1595 33.8002 93.1995 33.8902 93.2595 33.9602C93.3995 34.1202 93.6595 34.1102 93.7895 33.9602C93.8595 33.8902 93.8895 33.8002 93.8895 33.6902V30.4802C93.8895 29.9802 93.7895 29.5002 93.5995 29.0602C93.4095 28.6202 93.1495 28.2302 92.8195 27.9102V27.9202ZM93.1695 30.5202C93.1695 30.5202 93.1695 30.5902 93.1695 30.6202C93.1695 30.6502 93.1695 30.6902 93.1695 30.7102C93.1695 30.7402 93.1595 30.7702 93.1595 30.8002C93.1295 31.1702 93.0295 31.5102 92.8695 31.8402C92.7095 32.1602 92.4995 32.4402 92.2395 32.6802C91.9795 32.9202 91.6795 33.1102 91.3495 33.2402C90.6495 33.5202 89.7995 33.5102 89.1095 33.2102C88.7495 33.0502 88.4395 32.8402 88.1795 32.5802C87.9195 32.3202 87.7095 32.0002 87.5595 31.6502C87.4095 31.3002 87.3295 30.9202 87.3295 30.5202C87.3295 30.1202 87.4095 29.7302 87.5595 29.3802C87.7095 29.0302 87.9195 28.7102 88.1795 28.4502C88.4395 28.1902 88.7495 27.9802 89.1095 27.8202C89.4695 27.6702 89.8495 27.5902 90.2595 27.5902C90.6695 27.5902 91.0595 27.6702 91.4095 27.8202C91.7595 27.9702 92.0695 28.1802 92.3395 28.4502C92.5995 28.7102 92.8095 29.0302 92.9595 29.3802C93.1095 29.7302 93.1795 30.1202 93.1795 30.5202H93.1695Z" fill="black"/>
<path d="M105.89 27.8002C105.64 27.5002 105.34 27.2602 104.98 27.1102C104.63 26.9502 104.23 26.8702 103.79 26.8702C103.5 26.8702 103.21 26.9202 102.94 27.0102C102.67 27.1002 102.41 27.2202 102.17 27.3802C101.93 27.5402 101.71 27.7302 101.52 27.9502C101.43 28.0602 101.34 28.1702 101.25 28.2902V24.7402C101.25 24.6402 101.22 24.5502 101.15 24.4802C101.01 24.3302 100.76 24.3302 100.62 24.4802C100.55 24.5502 100.52 24.6402 100.52 24.7402V33.7102C100.52 33.8102 100.56 33.9002 100.62 33.9702C100.76 34.1202 101 34.1202 101.14 33.9702C101.21 33.9002 101.24 33.8102 101.24 33.7102V30.3602C101.24 29.9702 101.31 29.6102 101.44 29.2702C101.57 28.9302 101.75 28.6402 101.98 28.3902C102.21 28.1402 102.47 27.9502 102.77 27.8102C103.07 27.6702 103.39 27.6002 103.73 27.6002C104.41 27.6002 104.93 27.8202 105.31 28.2802C105.69 28.7402 105.89 29.4402 105.89 30.3802V33.7102C105.89 33.8102 105.93 33.9002 105.99 33.9702C106.06 34.0402 106.15 34.0802 106.25 34.0802C106.36 34.0802 106.45 34.0402 106.52 33.9702C106.59 33.9002 106.62 33.8102 106.62 33.7102V30.3702C106.62 29.8202 106.55 29.3302 106.43 28.9002C106.3 28.4702 106.11 28.1002 105.87 27.8002H105.89Z" fill="black"/>
<path d="M114.1 27.9302C113.77 27.6002 113.38 27.3402 112.94 27.1502C112.06 26.7802 110.99 26.7702 110.1 27.1502C109.66 27.3402 109.27 27.6002 108.94 27.9302C108.82 28.0502 108.7 28.1802 108.6 28.3202V24.7302C108.6 24.6302 108.56 24.5402 108.49 24.4702C108.35 24.3402 108.12 24.3402 107.98 24.4702C107.91 24.5402 107.87 24.6302 107.87 24.7302V33.7302C107.87 33.8302 107.91 33.9202 107.98 33.9902C108.12 34.1302 108.36 34.1202 108.49 33.9902C108.56 33.9202 108.6 33.8302 108.6 33.7302V32.7102C108.7 32.8502 108.82 32.9802 108.94 33.1002C109.27 33.4302 109.66 33.7002 110.1 33.8802C110.54 34.0702 111.02 34.1702 111.52 34.1702C112.02 34.1702 112.5 34.0702 112.95 33.8802C113.39 33.6902 113.78 33.4302 114.11 33.0902C114.44 32.7602 114.7 32.3702 114.89 31.9302C115.08 31.4902 115.17 31.0102 115.17 30.5102C115.17 30.0102 115.07 29.5302 114.89 29.0802C114.7 28.6402 114.44 28.2502 114.11 27.9202L114.1 27.9302ZM109.44 28.4502C109.7 28.1902 110.01 27.9802 110.37 27.8302C111.08 27.5302 111.96 27.5302 112.67 27.8302C113.02 27.9802 113.34 28.1902 113.6 28.4502C113.86 28.7102 114.07 29.0202 114.22 29.3802C114.37 29.7302 114.45 30.1202 114.45 30.5202C114.45 30.9202 114.37 31.3002 114.23 31.6502C114.08 32.0002 113.87 32.3202 113.61 32.5802C113.35 32.8402 113.03 33.0602 112.68 33.2102C111.97 33.5202 111.08 33.5202 110.38 33.2102C110.03 33.0502 109.71 32.8402 109.45 32.5802C109.19 32.3202 108.98 32.0002 108.83 31.6502C108.68 31.3002 108.6 30.9202 108.6 30.5202C108.6 30.1202 108.68 29.7302 108.83 29.3802C108.98 29.0302 109.19 28.7102 109.45 28.4502H109.44Z" fill="black"/>
<path d="M121.77 27.9202C121.44 27.6002 121.06 27.3402 120.62 27.1502C119.74 26.7702 118.66 26.7702 117.78 27.1502C117.34 27.3402 116.95 27.6002 116.62 27.9302C116.29 28.2602 116.02 28.6502 115.83 29.0902C115.64 29.5302 115.54 30.0102 115.54 30.5202C115.54 31.0302 115.64 31.5002 115.83 31.9402C116.02 32.3802 116.28 32.7702 116.62 33.1002C116.95 33.4302 117.34 33.6902 117.78 33.8902C118.22 34.0802 118.7 34.1802 119.2 34.1802C119.53 34.1802 119.86 34.1302 120.17 34.0402C120.48 33.9502 120.77 33.8202 121.04 33.6602C121.31 33.5002 121.55 33.3102 121.77 33.0802C121.89 32.9602 122.01 32.8202 122.11 32.6802V33.6902C122.11 33.7902 122.15 33.8802 122.21 33.9602C122.35 34.1202 122.61 34.1102 122.74 33.9602C122.81 33.8902 122.84 33.8002 122.84 33.6902V30.4802C122.84 29.9802 122.74 29.5002 122.54 29.0602C122.35 28.6202 122.09 28.2302 121.76 27.9102L121.77 27.9202ZM122.12 30.5202C122.12 30.5202 122.12 30.5902 122.12 30.6202C122.12 30.6502 122.12 30.6902 122.12 30.7102C122.12 30.7402 122.11 30.7702 122.11 30.8002C122.08 31.1702 121.98 31.5202 121.82 31.8402C121.66 32.1602 121.45 32.4402 121.19 32.6802C120.93 32.9202 120.63 33.1102 120.3 33.2402C119.6 33.5202 118.75 33.5102 118.06 33.2102C117.7 33.0502 117.39 32.8402 117.13 32.5802C116.87 32.3202 116.66 32.0002 116.51 31.6502C116.36 31.3002 116.28 30.9202 116.28 30.5202C116.28 30.1202 116.36 29.7302 116.51 29.3802C116.66 29.0302 116.87 28.7102 117.13 28.4502C117.39 28.1902 117.7 27.9802 118.06 27.8202C118.42 27.6702 118.8 27.5902 119.21 27.5902C119.62 27.5902 120.01 27.6702 120.36 27.8202C120.71 27.9702 121.02 28.1802 121.29 28.4502C121.55 28.7102 121.76 29.0302 121.91 29.3802C122.06 29.7302 122.13 30.1202 122.13 30.5202H122.12Z" fill="black"/>
<path d="M129.36 32.5702C129.29 32.6002 129.22 32.6402 129.15 32.7002C128.89 32.9502 128.59 33.1302 128.26 33.2502C127.95 33.3702 127.61 33.4202 127.25 33.4202C126.84 33.4302 126.45 33.3502 126.09 33.1902C125.75 33.0302 125.44 32.8202 125.19 32.5602C124.94 32.3002 124.74 31.9902 124.59 31.6402C124.45 31.2902 124.37 30.9202 124.37 30.5402C124.37 30.5302 124.37 30.5202 124.37 30.5002C124.37 30.4902 124.37 30.4802 124.37 30.4602C124.37 30.0702 124.44 29.7002 124.59 29.3502C124.74 29.0002 124.94 28.6902 125.19 28.4302C125.44 28.1702 125.75 27.9602 126.09 27.8002C126.43 27.6502 126.8 27.5702 127.19 27.5702C127.56 27.5702 127.91 27.6302 128.24 27.7502C128.57 27.8802 128.87 28.0602 129.14 28.3202C129.2 28.3702 129.27 28.4002 129.34 28.4302C129.41 28.4602 129.53 28.4702 129.67 28.3502C129.75 28.2802 129.79 28.1802 129.79 28.0802C129.79 27.9802 129.75 27.8902 129.67 27.8002C129.37 27.4902 129 27.2502 128.56 27.0902C127.66 26.7502 126.66 26.7602 125.82 27.1302C125.39 27.3202 125 27.5802 124.68 27.9102C124.36 28.2402 124.1 28.6202 123.91 29.0602C123.72 29.5002 123.63 29.9702 123.63 30.4602V30.5702C123.63 31.0602 123.73 31.5302 123.91 31.9702C124.1 32.4002 124.36 32.7902 124.68 33.1102C125 33.4302 125.39 33.6902 125.82 33.8802C126.26 34.0702 126.73 34.1602 127.22 34.1602C127.68 34.1602 128.13 34.0802 128.56 33.9102C128.99 33.7402 129.36 33.5002 129.67 33.1902C129.74 33.1102 129.78 33.0202 129.79 32.9202C129.79 32.8102 129.75 32.7202 129.67 32.6502C129.53 32.5202 129.41 32.5302 129.33 32.5602L129.36 32.5702Z" fill="black"/>
<path d="M135.6 33.5102L133.12 29.7502L135.46 27.5102C135.52 27.4402 135.55 27.3702 135.56 27.2802C135.56 27.2002 135.55 27.1302 135.5 27.0602V27.0202L135.46 26.9802C135.39 26.9102 135.31 26.8802 135.22 26.8702C135.13 26.8702 135.04 26.9002 134.95 26.9702L131.35 30.4302V24.7102C131.35 24.6102 131.32 24.5202 131.25 24.4502C131.11 24.3102 130.87 24.3102 130.73 24.4502C130.66 24.5202 130.62 24.6102 130.62 24.7102V33.6902C130.62 33.7902 130.66 33.8802 130.73 33.9502C130.87 34.0902 131.1 34.0902 131.25 33.9502C131.32 33.8802 131.36 33.7902 131.36 33.6902V31.4002L132.58 30.2402L135.01 33.9102C135.07 34.0002 135.15 34.0502 135.25 34.0702C135.27 34.0702 135.29 34.0702 135.31 34.0702C135.38 34.0702 135.45 34.0502 135.51 34.0102C135.59 33.9602 135.65 33.8802 135.66 33.7802C135.68 33.6802 135.66 33.5902 135.6 33.5002V33.5102Z" fill="black"/>
</svg>