<svg width="137" height="35" viewBox="0 0 137 35" fill="none" xmlns="http://www.w3.org/2000/svg">
<path d="M89.7249 11.45V11.12C89.7249 11.01 89.7249 10.9 89.7249 10.79V11.45Z" fill="white"/>
<path d="M88.7949 0.01C88.5449 0.01 88.3149 0.11 88.1349 0.29C87.9649 0.47 87.8649 0.71 87.8649 0.96V5.25C86.9349 3.94 85.7149 2.87 84.3049 2.13C82.8849 1.39 81.3149 1.01 79.7249 1.01C77.0749 1.01 74.5249 2.08 72.6549 3.98C70.7749 5.88 69.7249 8.45 69.7249 11.13C69.7249 13.81 70.7849 16.38 72.6549 18.28C74.5349 20.18 77.0749 21.24 79.7249 21.25C81.3149 21.25 82.8849 20.86 84.3049 20.13C85.7249 19.39 86.9449 18.32 87.8649 17.01V20.42C87.8649 20.67 87.9649 20.91 88.1349 21.09C88.3049 21.27 88.5449 21.37 88.7949 21.37C89.0449 21.37 89.2749 21.27 89.4549 21.09C89.6249 20.91 89.7249 20.67 89.7249 20.42V0.95C89.7249 0.7 89.6249 0.46 89.4549 0.28C89.2849 0.1 89.0449 0 88.7949 0V0.01ZM79.7249 19.36C77.5649 19.36 75.4949 18.49 73.9649 16.94C72.4349 15.4 71.5749 13.3 71.5749 11.12C71.5749 8.94 72.4349 6.84 73.9649 5.3C75.4949 3.76 77.5649 2.89 79.7249 2.88C81.8349 2.88 83.8649 3.71 85.3849 5.2C86.9049 6.68 87.7949 8.7 87.8649 10.84V11.4C87.7949 13.53 86.9049 15.56 85.3849 17.04C83.8649 18.52 81.8349 19.35 79.7249 19.36Z" fill="white"/>
<path d="M126.495 1C123.845 1 121.295 2.07 119.425 3.97C117.545 5.87 116.495 8.44 116.495 11.12C116.495 13.8 117.555 16.37 119.425 18.27C121.305 20.17 123.845 21.23 126.495 21.24C129.145 21.24 131.695 20.17 133.565 18.27C135.445 16.37 136.495 13.8 136.495 11.12C136.495 8.44 135.435 5.87 133.565 3.97C131.685 2.07 129.145 1.01 126.495 1ZM126.495 19.36C124.335 19.36 122.265 18.49 120.735 16.94C119.205 15.4 118.345 13.3 118.345 11.12C118.345 8.94 119.205 6.84 120.735 5.3C122.265 3.76 124.335 2.89 126.495 2.88C128.655 2.88 130.725 3.75 132.255 5.29C133.785 6.83 134.645 8.93 134.645 11.11C134.645 13.29 133.785 15.39 132.255 16.93C130.725 18.47 128.655 19.34 126.495 19.35V19.36Z" fill="white"/>
<path d="M43.2049 18.21C42.2749 19.17 41.1649 19.94 39.9349 20.46C38.7049 20.98 37.3849 21.25 36.0549 21.24C33.4049 21.24 30.8549 20.17 28.9849 18.27C27.1049 16.37 26.0549 13.8 26.0549 11.12C26.0549 8.44 27.1149 5.87 28.9849 3.97C30.8649 2.07 33.4049 1.01 36.0549 1C37.3849 1 38.6949 1.26 39.9149 1.78C41.1349 2.3 42.2449 3.06 43.1749 4.01C43.3449 4.19 43.4449 4.43 43.4449 4.68C43.4449 4.93 43.3449 5.17 43.1649 5.34C43.0749 5.43 42.9749 5.5 42.8649 5.54C42.7549 5.59 42.6349 5.61 42.5049 5.61C42.3849 5.61 42.2649 5.58 42.1449 5.54C42.0349 5.49 41.9349 5.42 41.8449 5.33C41.0849 4.55 40.1849 3.93 39.1949 3.51C38.1949 3.09 37.1349 2.87 36.0549 2.88C33.8949 2.88 31.8249 3.75 30.2949 5.29C28.7649 6.83 27.9049 8.93 27.9049 11.11C27.9049 13.29 28.7649 15.39 30.2949 16.93C31.8249 18.47 33.8949 19.34 36.0549 19.35C37.1349 19.35 38.2149 19.14 39.2149 18.71C40.2149 18.29 41.1149 17.66 41.8749 16.88C41.9649 16.79 42.0649 16.72 42.1749 16.67C42.2849 16.62 42.4049 16.6 42.5349 16.59C42.6549 16.59 42.7749 16.61 42.8949 16.66C43.0049 16.71 43.1149 16.77 43.1949 16.86C43.2749 16.95 43.3549 17.05 43.3949 17.16C43.4449 17.27 43.4649 17.4 43.4649 17.52C43.4649 17.64 43.4449 17.77 43.3949 17.88C43.3449 17.99 43.2849 18.1 43.1949 18.19L43.2049 18.21Z" fill="white"/>
<path d="M13.0549 1C10.4049 1 7.85488 2.07 5.98488 3.97C4.10488 5.87 3.05488 8.44 3.05488 11.12C3.05488 13.54 3.90488 15.87 5.46488 17.7L0.774883 22.45C0.684883 22.54 0.624883 22.64 0.574883 22.76C0.524883 22.87 0.504883 23 0.504883 23.12C0.504883 23.24 0.524883 23.37 0.574883 23.48C0.624883 23.59 0.694883 23.7 0.774883 23.79C0.864883 23.88 0.964883 23.95 1.08488 23.99C1.19488 24.04 1.32488 24.06 1.44488 24.06C1.56488 24.06 1.68488 24.04 1.80488 23.99C1.91488 23.94 2.02488 23.88 2.11488 23.79L6.81488 19.04H6.82488C8.59488 20.47 10.8049 21.26 13.0849 21.26C15.7349 21.26 18.2849 20.19 20.1549 18.29C22.0349 16.39 23.0849 13.82 23.0849 11.14C23.0849 8.45 22.0249 5.88 20.1449 3.98C18.2649 2.08 15.7149 1.02 13.0649 1.02L13.0549 1ZM5.29488 13.61C5.04488 12.8 4.91488 11.96 4.91488 11.11C4.91488 8.93 5.77488 6.83 7.30488 5.29C8.83488 3.75 10.9049 2.88 13.0649 2.88C15.2249 2.88 17.2949 3.75 18.8249 5.3C20.3549 6.84 21.2149 8.94 21.2149 11.12C21.2149 12.23 20.9949 13.33 20.5549 14.36C20.0249 14.6 17.7849 15.37 13.1649 14.05V11.83L17.0449 10.04C17.1849 9.97 17.3149 9.87 17.4049 9.74C17.4949 9.61 17.5549 9.46 17.5749 9.3C17.5949 9.14 17.5749 8.98 17.5049 8.83C17.4449 8.68 17.3449 8.55 17.2149 8.45L12.7849 4.98C12.6449 4.87 12.4849 4.81 12.3049 4.79C12.1349 4.77 11.9549 4.8 11.8049 4.88C11.6449 4.96 11.5149 5.08 11.4249 5.23C11.3349 5.38 11.2849 5.55 11.2849 5.73V13.61C9.30488 13.23 7.26488 13.24 5.28488 13.63L5.29488 13.61ZM13.1649 9.76V7.63L14.8749 8.97L13.1649 9.76ZM13.0649 19.35C11.6649 19.35 10.2849 18.98 9.06488 18.29C7.84488 17.59 6.82488 16.59 6.09488 15.38C7.98488 15.08 9.91488 15.16 11.7849 15.62C11.9349 15.66 12.0949 15.7 12.2549 15.74C12.3349 15.76 12.4049 15.78 12.4849 15.81C14.7449 16.47 16.5349 16.69 17.9149 16.69C18.3149 16.69 18.7249 16.67 19.1249 16.63C18.3649 17.49 17.4249 18.18 16.3849 18.65C15.3449 19.12 14.2149 19.36 13.0749 19.36L13.0649 19.35Z" fill="#4CFDA8"/>
<path d="M87.8749 11.12V11.4V10.84C87.8749 10.93 87.8749 11.03 87.8749 11.12Z" fill="white"/>
<path d="M113.465 20.38C113.465 20.63 113.365 20.87 113.195 21.05C113.015 21.23 112.785 21.33 112.535 21.33C112.285 21.33 112.055 21.23 111.875 21.05C111.705 20.87 111.605 20.63 111.605 20.38L111.585 11.12C111.585 8.94 110.725 6.84 109.195 5.3C107.665 3.76 105.595 2.89 103.435 2.88C101.275 2.88 99.2049 3.75 97.6749 5.3C96.1449 6.84 95.2849 8.94 95.2849 11.12V20.41C95.2849 20.66 95.1849 20.9 95.0149 21.08C94.8449 21.26 94.6049 21.36 94.3549 21.36C94.1049 21.36 93.8749 21.26 93.6949 21.08C93.5249 20.9 93.4249 20.66 93.4249 20.41V0.95C93.4249 0.7 93.5249 0.46 93.6949 0.28C93.8649 0.1 94.1049 0 94.3549 0C94.6049 0 94.8349 0.1 95.0149 0.28C95.1849 0.46 95.2849 0.7 95.2849 0.95V5.25C96.2049 3.94 97.4349 2.87 98.8449 2.13C100.265 1.39 101.835 1.01 103.425 1C106.075 1 108.625 2.07 110.495 3.97C112.365 5.87 113.425 8.44 113.435 11.12L113.455 20.38H113.465Z" fill="white"/>
<path d="M64.0549 4.03C63.1249 3.1 62.0249 2.36 60.8049 1.85C59.5949 1.35 58.2949 1.09 56.9849 1.1C54.3649 1.1 51.8449 2.15 49.9749 4.01C48.1049 5.87 47.0249 8.4 46.9849 11.05C46.9849 11.09 46.9849 11.12 46.9849 11.16C46.9849 11.19 46.9849 11.23 46.9849 11.26C46.9949 13.94 48.0549 16.5 49.9349 18.39C51.8049 20.28 54.3449 21.34 56.9949 21.34C58.3149 21.34 59.6249 21.08 60.8449 20.57C62.0649 20.06 63.1749 19.3 64.1049 18.35C64.1949 18.26 64.2549 18.16 64.3049 18.04C64.3549 17.93 64.3749 17.8 64.3749 17.68C64.3749 17.56 64.3549 17.43 64.3049 17.32C64.2549 17.21 64.1849 17.1 64.1049 17.01C64.0149 16.92 63.9149 16.85 63.8049 16.81C63.6949 16.76 63.5749 16.74 63.4449 16.74C63.3149 16.74 63.2049 16.76 63.0849 16.81C62.9749 16.86 62.8649 16.93 62.7849 17.01C62.0249 17.79 61.1249 18.4 60.1349 18.82C59.1449 19.24 58.0749 19.45 56.9949 19.45C54.9849 19.45 53.0449 18.7 51.5549 17.34C50.0549 15.98 49.1149 14.11 48.8949 12.09H66.0649C66.3149 12.09 66.5449 11.99 66.7249 11.81C66.8949 11.63 66.9949 11.39 66.9949 11.14C66.9949 9.82 66.7349 8.51 66.2349 7.28C65.7349 6.06 64.9949 4.95 64.0649 4.02L64.0549 4.03ZM48.8949 10.22C49.1349 8.22 50.0949 6.39 51.5849 5.05C53.0749 3.72 54.9949 2.98 56.9849 2.98C58.9749 2.98 60.8949 3.71 62.3849 5.05C63.8749 6.38 64.8349 8.22 65.0649 10.22H48.8949Z" fill="white"/>
<path d="M99.4149 30.05C99.2049 29.9 98.9549 29.78 98.5949 29.64C98.3049 29.54 97.9949 29.44 97.6349 29.33C97.4449 29.27 97.2449 29.21 97.0349 29.12C96.8349 29.05 96.6749 28.96 96.5449 28.87C96.4049 28.77 96.3149 28.66 96.2249 28.51C96.1449 28.39 96.1149 28.24 96.1149 28.04C96.1149 27.82 96.1649 27.64 96.2549 27.5C96.3449 27.35 96.4649 27.24 96.6349 27.13C96.8049 27.03 96.9749 26.97 97.1449 26.93C97.3749 26.89 97.5549 26.87 97.7149 26.87C98.0849 26.87 98.3749 26.93 98.6249 27.07C98.8749 27.19 99.0949 27.4 99.3249 27.73C99.3849 27.79 99.4749 27.82 99.5649 27.8C99.6349 27.8 99.7049 27.76 99.7549 27.71C99.8149 27.66 99.9349 27.52 99.8049 27.29C99.5949 26.92 99.3049 26.63 98.9349 26.45C98.6749 26.32 98.3949 26.24 98.1049 26.2V25.3C98.1049 25.09 97.9349 24.93 97.7349 24.93C97.5349 24.93 97.3649 25.1 97.3649 25.3V26.2C97.2149 26.22 97.0649 26.25 96.8949 26.29C96.6349 26.35 96.3749 26.47 96.1549 26.63C95.9349 26.77 95.7449 26.97 95.6149 27.2C95.4649 27.44 95.3949 27.71 95.3949 28.04C95.3949 28.34 95.4549 28.59 95.5749 28.81C95.6949 29.01 95.8549 29.2 96.0549 29.35C96.2649 29.5 96.4849 29.63 96.7049 29.72C96.9349 29.82 97.1849 29.9 97.4449 29.98C97.7449 30.06 98.0349 30.15 98.2849 30.23C98.5649 30.34 98.7749 30.43 98.9349 30.54C99.1149 30.66 99.2449 30.79 99.3449 30.94C99.4349 31.08 99.4849 31.23 99.4849 31.44C99.4849 31.65 99.4449 31.83 99.3549 31.99C99.2449 32.17 99.1149 32.31 98.9649 32.42C98.7749 32.56 98.5949 32.65 98.4049 32.7C98.1949 32.77 97.9749 32.8 97.7549 32.8C97.2949 32.8 96.9249 32.73 96.6249 32.58C96.3249 32.43 96.0849 32.19 95.9049 31.86C95.8349 31.78 95.7549 31.72 95.6549 31.71C95.5849 31.7 95.5049 31.69 95.4149 31.73C95.3349 31.77 95.2749 31.85 95.2549 31.92C95.2049 32.04 95.2549 32.15 95.2849 32.22C95.4949 32.64 95.8249 32.96 96.2649 33.16C96.5849 33.32 96.9449 33.42 97.3549 33.46V34.27C97.3549 34.48 97.5249 34.64 97.7249 34.64C97.9249 34.64 98.0949 34.47 98.0949 34.27V33.46C98.2849 33.44 98.4849 33.4 98.6749 33.33C98.9749 33.23 99.2349 33.08 99.4549 32.9C99.6949 32.71 99.8649 32.5 99.9949 32.26C100.125 32.01 100.195 31.73 100.195 31.44C100.195 31.1 100.125 30.84 99.9749 30.61C99.8349 30.4 99.6449 30.21 99.4049 30.05H99.4149Z" fill="#4CFDA8"/>
<path d="M86.2549 31.89C86.1849 31.92 86.1149 31.96 86.0449 32.02C85.7849 32.27 85.4849 32.45 85.1549 32.57C84.8449 32.69 84.5049 32.74 84.1449 32.74C83.7349 32.74 83.3349 32.67 82.9849 32.51C82.6449 32.35 82.3349 32.14 82.0849 31.88C81.8349 31.62 81.6349 31.31 81.4849 30.96C81.3449 30.61 81.2649 30.24 81.2649 29.86C81.2649 29.85 81.2649 29.84 81.2649 29.82C81.2649 29.81 81.2649 29.79 81.2649 29.78C81.2649 29.39 81.3349 29.02 81.4849 28.67C81.6349 28.32 81.8349 28.01 82.0849 27.75C82.3349 27.49 82.6449 27.28 82.9849 27.12C83.3249 26.97 83.6949 26.89 84.0849 26.89C84.4649 26.89 84.8049 26.95 85.1349 27.07C85.4649 27.19 85.7649 27.38 86.0349 27.64C86.0949 27.69 86.1649 27.72 86.2349 27.75C86.3149 27.78 86.4249 27.79 86.5649 27.67C86.6449 27.6 86.6849 27.5 86.6849 27.4C86.6849 27.3 86.6449 27.21 86.5649 27.12C86.2649 26.81 85.8949 26.57 85.4549 26.41C84.5549 26.07 83.5549 26.08 82.7149 26.45C82.2849 26.64 81.8949 26.9 81.5749 27.23C81.2549 27.56 80.9949 27.94 80.8049 28.38C80.6149 28.82 80.5249 29.29 80.5249 29.78C80.5249 29.8 80.5249 29.83 80.5249 29.83V29.89C80.5249 30.38 80.6149 30.85 80.8049 31.29C80.9949 31.72 81.2549 32.11 81.5749 32.43C81.8949 32.75 82.2849 33.01 82.7149 33.2C83.1549 33.39 83.6249 33.48 84.1149 33.48C84.5749 33.48 85.0249 33.4 85.4549 33.23C85.8849 33.06 86.2549 32.82 86.5649 32.51C86.6349 32.43 86.6749 32.34 86.6849 32.24C86.6849 32.13 86.6449 32.04 86.5649 31.97C86.4249 31.84 86.3049 31.85 86.2249 31.88L86.2549 31.89Z" fill="#4CFDA8"/>
<path d="M93.3249 27.24C92.9949 26.92 92.6149 26.66 92.1749 26.47C91.2949 26.09 90.2149 26.09 89.3349 26.47C88.8949 26.66 88.5049 26.92 88.1749 27.25C87.8449 27.58 87.5749 27.97 87.3849 28.41C87.1949 28.85 87.0949 29.34 87.0949 29.84C87.0949 30.34 87.1949 30.82 87.3849 31.26C87.5749 31.7 87.8449 32.09 88.1749 32.42C88.5049 32.75 88.8949 33.01 89.3349 33.21C89.7749 33.4 90.2549 33.5 90.7549 33.5C91.0849 33.5 91.4149 33.45 91.7249 33.36C92.0349 33.27 92.3249 33.14 92.5949 32.98C92.8649 32.82 93.1049 32.63 93.3249 32.4C93.4449 32.28 93.5649 32.14 93.6649 32V33.01C93.6649 33.12 93.7049 33.21 93.7649 33.28C93.9049 33.44 94.1649 33.43 94.2949 33.28C94.3649 33.21 94.3949 33.12 94.3949 33.01V29.8C94.3949 29.3 94.2949 28.82 94.1049 28.38C93.9149 27.94 93.6549 27.55 93.3249 27.23V27.24ZM93.6749 29.84C93.6749 29.84 93.6749 29.91 93.6749 29.94C93.6749 29.97 93.6749 30.01 93.6749 30.03C93.6749 30.06 93.6649 30.09 93.6649 30.12C93.6349 30.49 93.5349 30.83 93.3749 31.16C93.2149 31.48 93.0049 31.76 92.7449 32C92.4849 32.24 92.1849 32.43 91.8549 32.56C91.1549 32.84 90.3049 32.83 89.6149 32.53C89.2549 32.37 88.9449 32.16 88.6849 31.9C88.4249 31.64 88.2149 31.32 88.0649 30.97C87.9149 30.62 87.8349 30.24 87.8349 29.84C87.8349 29.44 87.9149 29.05 88.0649 28.7C88.2149 28.35 88.4249 28.03 88.6849 27.77C88.9449 27.51 89.2549 27.3 89.6149 27.14C89.9749 26.99 90.3549 26.91 90.7649 26.91C91.1749 26.91 91.5649 26.99 91.9149 27.14C92.2649 27.29 92.5749 27.5 92.8449 27.77C93.1049 28.03 93.3149 28.35 93.4649 28.7C93.6149 29.05 93.6849 29.44 93.6849 29.84H93.6749Z" fill="#4CFDA8"/>
<path d="M106.395 27.12C106.145 26.82 105.845 26.58 105.485 26.43C105.135 26.27 104.735 26.19 104.295 26.19C104.005 26.19 103.715 26.24 103.445 26.33C103.175 26.42 102.915 26.54 102.675 26.7C102.435 26.86 102.215 27.05 102.025 27.27C101.935 27.38 101.845 27.49 101.755 27.61V24.06C101.755 23.96 101.725 23.87 101.655 23.8C101.515 23.65 101.265 23.65 101.125 23.8C101.055 23.87 101.025 23.96 101.025 24.06V33.03C101.025 33.13 101.065 33.22 101.125 33.29C101.265 33.44 101.505 33.44 101.645 33.29C101.715 33.22 101.745 33.13 101.745 33.03V29.68C101.745 29.29 101.815 28.93 101.945 28.59C102.075 28.25 102.255 27.96 102.485 27.71C102.715 27.46 102.975 27.27 103.275 27.13C103.575 26.99 103.895 26.92 104.235 26.92C104.915 26.92 105.435 27.14 105.815 27.6C106.195 28.06 106.395 28.76 106.395 29.7V33.03C106.395 33.13 106.435 33.22 106.495 33.29C106.565 33.36 106.655 33.4 106.755 33.4C106.865 33.4 106.955 33.36 107.025 33.29C107.095 33.22 107.125 33.13 107.125 33.03V29.69C107.125 29.14 107.055 28.65 106.935 28.22C106.805 27.79 106.615 27.42 106.375 27.12H106.395Z" fill="#4CFDA8"/>
<path d="M114.605 27.25C114.275 26.92 113.885 26.66 113.445 26.47C112.565 26.1 111.495 26.09 110.605 26.47C110.165 26.66 109.775 26.92 109.445 27.25C109.325 27.37 109.205 27.5 109.105 27.64V24.05C109.105 23.95 109.065 23.86 108.995 23.79C108.855 23.66 108.625 23.66 108.485 23.79C108.415 23.86 108.375 23.95 108.375 24.05V33.05C108.375 33.15 108.415 33.24 108.485 33.31C108.625 33.45 108.865 33.44 108.995 33.31C109.065 33.24 109.105 33.15 109.105 33.05V32.03C109.205 32.17 109.325 32.3 109.445 32.42C109.775 32.75 110.165 33.02 110.605 33.2C111.045 33.39 111.525 33.49 112.025 33.49C112.525 33.49 113.005 33.39 113.455 33.2C113.895 33.01 114.285 32.75 114.615 32.41C114.945 32.08 115.205 31.69 115.395 31.25C115.585 30.81 115.675 30.33 115.675 29.83C115.675 29.33 115.575 28.85 115.395 28.4C115.205 27.96 114.945 27.57 114.615 27.24L114.605 27.25ZM109.945 27.77C110.205 27.51 110.515 27.3 110.875 27.15C111.585 26.85 112.465 26.85 113.175 27.15C113.525 27.3 113.845 27.51 114.105 27.77C114.365 28.03 114.575 28.34 114.725 28.7C114.875 29.05 114.955 29.44 114.955 29.84C114.955 30.24 114.875 30.62 114.735 30.97C114.585 31.32 114.375 31.64 114.115 31.9C113.855 32.16 113.535 32.38 113.185 32.53C112.475 32.84 111.585 32.84 110.885 32.53C110.535 32.37 110.215 32.16 109.955 31.9C109.695 31.64 109.485 31.32 109.335 30.97C109.185 30.62 109.105 30.24 109.105 29.84C109.105 29.44 109.185 29.05 109.335 28.7C109.485 28.35 109.695 28.03 109.955 27.77H109.945Z" fill="#4CFDA8"/>
<path d="M122.275 27.24C121.945 26.92 121.565 26.66 121.125 26.47C120.245 26.09 119.165 26.09 118.285 26.47C117.845 26.66 117.455 26.92 117.125 27.25C116.795 27.58 116.525 27.97 116.335 28.41C116.145 28.85 116.045 29.33 116.045 29.84C116.045 30.35 116.145 30.82 116.335 31.26C116.525 31.7 116.785 32.09 117.125 32.42C117.455 32.75 117.845 33.01 118.285 33.21C118.725 33.4 119.205 33.5 119.705 33.5C120.035 33.5 120.365 33.45 120.675 33.36C120.985 33.27 121.275 33.14 121.545 32.98C121.815 32.82 122.055 32.63 122.275 32.4C122.395 32.28 122.515 32.14 122.615 32V33.01C122.615 33.11 122.655 33.2 122.715 33.28C122.855 33.44 123.115 33.43 123.245 33.28C123.315 33.21 123.345 33.12 123.345 33.01V29.8C123.345 29.3 123.245 28.82 123.045 28.38C122.855 27.94 122.595 27.55 122.265 27.23L122.275 27.24ZM122.625 29.84C122.625 29.84 122.625 29.91 122.625 29.94C122.625 29.97 122.625 30.01 122.625 30.03C122.625 30.06 122.615 30.09 122.615 30.12C122.585 30.49 122.485 30.84 122.325 31.16C122.165 31.48 121.955 31.76 121.695 32C121.435 32.24 121.135 32.43 120.805 32.56C120.105 32.84 119.255 32.83 118.565 32.53C118.205 32.37 117.895 32.16 117.635 31.9C117.375 31.64 117.165 31.32 117.015 30.97C116.865 30.62 116.785 30.24 116.785 29.84C116.785 29.44 116.865 29.05 117.015 28.7C117.165 28.35 117.375 28.03 117.635 27.77C117.895 27.51 118.205 27.3 118.565 27.14C118.925 26.99 119.305 26.91 119.715 26.91C120.125 26.91 120.515 26.99 120.865 27.14C121.215 27.29 121.525 27.5 121.795 27.77C122.055 28.03 122.265 28.35 122.415 28.7C122.565 29.05 122.635 29.44 122.635 29.84H122.625Z" fill="#4CFDA8"/>
<path d="M129.865 31.89C129.795 31.92 129.725 31.96 129.655 32.02C129.395 32.27 129.095 32.45 128.765 32.57C128.455 32.69 128.115 32.74 127.755 32.74C127.345 32.75 126.955 32.67 126.595 32.51C126.255 32.35 125.945 32.14 125.695 31.88C125.445 31.62 125.245 31.31 125.095 30.96C124.955 30.61 124.875 30.24 124.875 29.86C124.875 29.85 124.875 29.84 124.875 29.82C124.875 29.81 124.875 29.8 124.875 29.78C124.875 29.39 124.945 29.02 125.095 28.67C125.245 28.32 125.445 28.01 125.695 27.75C125.945 27.49 126.255 27.28 126.595 27.12C126.935 26.97 127.305 26.89 127.695 26.89C128.065 26.89 128.415 26.95 128.745 27.07C129.075 27.2 129.375 27.38 129.645 27.64C129.705 27.69 129.775 27.72 129.845 27.75C129.915 27.78 130.035 27.79 130.175 27.67C130.255 27.6 130.295 27.5 130.295 27.4C130.295 27.3 130.255 27.21 130.175 27.12C129.875 26.81 129.505 26.57 129.065 26.41C128.165 26.07 127.165 26.08 126.325 26.45C125.895 26.64 125.505 26.9 125.185 27.23C124.865 27.56 124.605 27.94 124.415 28.38C124.225 28.82 124.135 29.29 124.135 29.78V29.89C124.135 30.38 124.235 30.85 124.415 31.29C124.605 31.72 124.865 32.11 125.185 32.43C125.505 32.75 125.895 33.01 126.325 33.2C126.765 33.39 127.235 33.48 127.725 33.48C128.185 33.48 128.635 33.4 129.065 33.23C129.495 33.06 129.865 32.82 130.175 32.51C130.245 32.43 130.285 32.34 130.295 32.24C130.295 32.13 130.255 32.04 130.175 31.97C130.035 31.84 129.915 31.85 129.835 31.88L129.865 31.89Z" fill="#4CFDA8"/>
<path d="M136.105 32.83L133.625 29.07L135.965 26.83C136.025 26.76 136.055 26.69 136.065 26.6C136.065 26.52 136.055 26.45 136.005 26.38V26.34L135.965 26.3C135.895 26.23 135.815 26.2 135.725 26.19C135.635 26.19 135.545 26.22 135.455 26.29L131.855 29.75V24.03C131.855 23.93 131.825 23.84 131.755 23.77C131.615 23.63 131.375 23.63 131.235 23.77C131.165 23.84 131.125 23.93 131.125 24.03V33.01C131.125 33.11 131.165 33.2 131.235 33.27C131.375 33.41 131.605 33.41 131.755 33.27C131.825 33.2 131.865 33.11 131.865 33.01V30.72L133.085 29.56L135.515 33.23C135.575 33.32 135.655 33.37 135.755 33.39C135.775 33.39 135.795 33.39 135.815 33.39C135.885 33.39 135.955 33.37 136.015 33.33C136.095 33.28 136.155 33.2 136.165 33.1C136.185 33 136.165 32.91 136.105 32.82V32.83Z" fill="#4CFDA8"/>
</svg>
