<svg width="136" height="34" viewBox="0 0 136 34" fill="none" xmlns="http://www.w3.org/2000/svg">
  <path d="M89.2209 10.786V11.4364C89.2209 11.3289 89.2209 11.22 89.2209 11.1112C89.2209 11.0023 89.2249 10.8935 89.2209 10.786Z" fill="#1751D0"/>
  <path d="M88.2908 0C88.0441 0 87.8075 0.0990959 87.6331 0.275493C87.4586 0.451889 87.3606 0.691137 87.3606 0.9406V5.23376C86.4356 3.92236 85.2142 2.85336 83.798 2.11573C82.3819 1.3781 80.812 0.993173 79.2191 0.992999C76.5661 0.995844 74.0226 2.06273 72.1465 3.9596C70.2704 5.85647 69.2151 8.42842 69.2119 11.1112C69.2151 13.7941 70.2704 16.3661 72.1464 18.2632C74.0225 20.1603 76.566 21.2275 79.2191 21.2307C80.812 21.2306 82.382 20.8457 83.7981 20.1081C85.2143 19.3705 86.4357 18.3014 87.3606 16.9899V20.4043C87.3606 20.6538 87.4586 20.893 87.6331 21.0694C87.8075 21.2458 88.0441 21.3449 88.2908 21.3449C88.5375 21.3449 88.7741 21.2458 88.9485 21.0694C89.1229 20.893 89.2209 20.6538 89.2209 20.4043V0.9406C89.2209 0.691137 89.1229 0.451889 88.9485 0.275493C88.7741 0.0990959 88.5375 0 88.2908 0ZM79.2191 19.3495C77.0591 19.347 74.9884 18.4782 73.4611 16.9338C71.9338 15.3893 71.0747 13.2953 71.0722 11.1112C71.075 8.92724 71.9343 6.83358 73.4616 5.28942C74.9888 3.74527 77.0594 2.87669 79.2191 2.8742C81.3305 2.87634 83.3589 3.70656 84.8773 5.19019C86.3958 6.67381 87.286 8.69517 87.3606 10.829C87.3606 10.923 87.3606 11.0171 87.3606 11.1112C87.3606 11.2052 87.3606 11.2993 87.3606 11.3934C87.2863 13.5274 86.3962 15.5491 84.8778 17.033C83.3593 18.5169 81.3307 19.3473 79.2191 19.3495Z" fill="#1751D0"/>
  <path d="M125.993 0.992999C123.34 0.995844 120.796 2.06273 118.92 3.9596C117.044 5.85647 115.989 8.42842 115.986 11.1112C115.989 13.7941 117.044 16.3661 118.92 18.2632C120.796 20.1603 123.34 21.2275 125.993 21.2307C128.646 21.2278 131.19 20.1608 133.066 18.2636C134.942 16.3664 135.997 13.7942 136 11.1112C135.997 8.42842 134.941 5.85647 133.065 3.9596C131.189 2.06273 128.646 0.995844 125.993 0.992999ZM125.993 19.3495C123.833 19.347 121.762 18.4782 120.235 16.9338C118.708 15.3893 117.848 13.2953 117.846 11.1112C117.849 8.92724 118.708 6.83358 120.235 5.28942C121.763 3.74527 123.833 2.87669 125.993 2.8742C128.153 2.87633 130.223 3.7448 131.751 5.28903C133.278 6.83326 134.137 8.92713 134.14 11.1112C134.138 13.2955 133.279 15.3897 131.751 16.9342C130.224 18.4787 128.153 19.3474 125.993 19.3495Z" fill="#1751D0"/>
  <path d="M42.6984 18.1952C41.7695 19.1597 40.6583 19.9254 39.4308 20.4469C38.2034 20.9684 36.8848 21.2349 35.5534 21.2307C32.9002 21.2278 30.3565 20.1608 28.4804 18.2636C26.6043 16.3665 25.549 13.7942 25.5462 11.1112C25.5494 8.42842 26.6048 5.85648 28.4808 3.95961C30.3569 2.06274 32.9004 0.995848 35.5534 0.993003C36.8789 0.988994 38.1918 1.25323 39.4148 1.77016C40.6377 2.28708 41.746 3.04624 42.6744 4.00293C42.8473 4.18051 42.9434 4.42019 42.9416 4.66934C42.9399 4.91849 42.8404 5.15677 42.6651 5.33186C42.5782 5.41869 42.4753 5.48735 42.3621 5.53394C42.249 5.58052 42.1279 5.60412 42.0057 5.60337C41.8836 5.60262 41.7628 5.57754 41.6502 5.52957C41.5376 5.4816 41.4355 5.41168 41.3496 5.3238C40.594 4.5451 39.6918 3.92721 38.6964 3.50651C37.7009 3.08582 36.6323 2.87082 35.5534 2.8742C33.3936 2.87634 31.3228 3.7448 29.7955 5.28903C28.2682 6.83326 27.409 8.92713 27.4065 11.1112C27.4087 13.2955 28.2677 15.3897 29.795 16.9342C31.3224 18.4787 33.3934 19.3474 35.5534 19.3495C36.6374 19.3529 37.7109 19.1359 38.7103 18.7114C39.7097 18.2869 40.6145 17.6635 41.3709 16.8784C41.4564 16.7902 41.5582 16.7198 41.6706 16.6714C41.783 16.6229 41.9037 16.5974 42.0259 16.5961C42.1481 16.5949 42.2693 16.618 42.3826 16.6641C42.4959 16.7102 42.5992 16.7785 42.6864 16.865C42.7736 16.9515 42.843 17.0546 42.8908 17.1683C42.9386 17.282 42.9638 17.4041 42.9649 17.5276C42.966 17.6511 42.943 17.7737 42.8973 17.8882C42.8516 18.0028 42.784 18.1071 42.6984 18.1952Z" fill="#1751D0"/>
  <path d="M12.5546 0.992999C9.90158 0.995844 7.35804 2.06273 5.48198 3.9596C3.60591 5.85647 2.55053 8.42842 2.54736 11.1112C2.54479 13.5273 3.4007 15.864 4.95914 17.6954L0.272459 22.436C0.186076 22.5233 0.117554 22.627 0.0708033 22.7412C0.0240525 22.8553 0 22.9776 0 23.1011C0 23.2247 0.0240525 23.347 0.0708033 23.4611C0.117554 23.5752 0.186076 23.6789 0.272459 23.7663C0.360174 23.8532 0.464055 23.9217 0.578089 23.9678C0.692123 24.014 0.814053 24.0368 0.936859 24.035C1.05966 24.0368 1.18161 24.014 1.29564 23.9678C1.40968 23.9217 1.51354 23.8532 1.60126 23.7663L6.29725 19.0162L6.3092 19.0028C8.08193 20.4478 10.2909 21.2346 12.5678 21.232C15.2209 21.2288 17.7645 20.1616 19.6405 18.2646C21.5165 16.3675 22.5719 13.7954 22.575 11.1125C22.5722 8.4272 21.5152 5.85288 19.6362 3.95534C17.7572 2.05779 15.2101 0.992285 12.5546 0.992999ZM4.79038 13.6078C4.53598 12.8006 4.40689 11.9584 4.40768 11.1112C4.41014 8.92713 5.26931 6.83326 6.79665 5.28903C8.32399 3.7448 10.3948 2.87633 12.5546 2.8742C14.7143 2.87669 16.7848 3.74527 18.3121 5.28942C19.8393 6.83358 20.6986 8.92724 20.7014 11.1112C20.7029 12.2241 20.4795 13.3256 20.045 14.3482C19.5135 14.5847 17.2771 15.3627 12.6569 14.0405V11.8247L16.5383 10.0349C16.6828 9.96681 16.8075 9.86235 16.9006 9.73153C16.9937 9.60071 17.0519 9.4479 17.0698 9.28775C17.0884 9.127 17.0656 8.96413 17.0036 8.81489C16.9417 8.66565 16.8428 8.53509 16.7163 8.43584L12.2901 4.96234C12.1526 4.85459 11.9878 4.78802 11.8147 4.7702C11.6416 4.75239 11.467 4.78404 11.3108 4.86156C11.1547 4.93892 11.0231 5.059 10.931 5.20816C10.8389 5.35731 10.7901 5.52958 10.7899 5.70541V13.589C8.80711 13.2091 6.77081 13.2155 4.79038 13.6078ZM12.6569 9.75671V7.62558L14.367 8.96929L12.6569 9.75671ZM12.5546 19.3495C11.1526 19.349 9.7745 18.9826 8.55354 18.2858C7.33259 17.589 6.3101 16.5854 5.585 15.3721C7.47752 15.0748 9.40936 15.1561 11.2709 15.6113C11.4251 15.6489 11.5792 15.6879 11.736 15.7322C11.8131 15.7524 11.8902 15.7752 11.9686 15.7981C14.2275 16.4618 16.0187 16.6809 17.3967 16.6809C17.8005 16.6816 18.2041 16.6615 18.6059 16.6204C17.8435 17.4797 16.9105 18.1669 15.8679 18.6371C14.8252 19.1074 13.6962 19.3501 12.5546 19.3495Z" fill="#1751D0"/>
  <path d="M87.366 11.1112C87.366 11.2052 87.366 11.2993 87.366 11.3934V10.829C87.3646 10.923 87.366 11.0171 87.366 11.1112Z" fill="#1751D0"/>
  <path d="M112.96 20.3707C112.96 20.6202 112.862 20.8594 112.688 21.0358C112.513 21.2122 112.276 21.3113 112.03 21.3113C111.783 21.3113 111.547 21.2122 111.372 21.0358C111.198 20.8594 111.1 20.6202 111.1 20.3707L111.08 11.1098C111.078 8.92542 110.219 6.83107 108.691 5.28634C107.164 3.74161 105.093 2.87266 102.933 2.87017C100.773 2.87266 98.7028 3.74128 97.1758 5.28547C95.6487 6.82966 94.7897 8.92332 94.7873 11.1071V20.4003C94.7873 20.6497 94.6893 20.889 94.5148 21.0654C94.3404 21.2418 94.1038 21.3409 93.8571 21.3409C93.6104 21.3409 93.3738 21.2418 93.1994 21.0654C93.025 20.889 92.927 20.6497 92.927 20.4003V0.9406C92.927 0.691137 93.025 0.451889 93.1994 0.275493C93.3738 0.0990959 93.6104 0 93.8571 0C94.1038 0 94.3404 0.0990959 94.5148 0.275493C94.6893 0.451889 94.7873 0.691137 94.7873 0.9406V5.24049C95.7117 3.92688 96.9333 2.85585 98.3503 2.11674C99.7673 1.37764 101.338 0.991888 102.933 0.991662C105.586 0.994507 108.129 2.0614 110.005 3.95827C111.881 5.85514 112.937 8.42707 112.94 11.1098L112.96 20.3707Z" fill="#1751D0"/>
  <path d="M63.5525 4.02442C62.6225 3.08963 61.5193 2.3495 60.306 1.84639C59.0927 1.34329 57.7933 1.08708 56.482 1.09244C53.859 1.0955 51.3417 2.13863 49.4709 3.9978C47.6001 5.85698 46.5248 8.38392 46.4761 11.0359C46.4741 11.0731 46.4741 11.1103 46.4761 11.1474C46.4742 11.181 46.4742 11.2147 46.4761 11.2482C46.4898 13.924 47.5498 16.4856 49.4248 18.3738C51.2997 20.2619 53.8372 21.3233 56.4833 21.3261C57.8063 21.3299 59.1166 21.0666 60.3376 20.5516C61.5586 20.0366 62.6656 19.2802 63.5937 18.3269C63.6801 18.2396 63.7486 18.1359 63.7954 18.0218C63.8421 17.9076 63.8662 17.7853 63.8662 17.6618C63.8662 17.5383 63.8421 17.4159 63.7954 17.3018C63.7486 17.1877 63.6801 17.084 63.5937 16.9966C63.5073 16.9093 63.4048 16.84 63.292 16.7927C63.1791 16.7454 63.0581 16.7211 62.936 16.7211C62.8138 16.7211 62.6928 16.7454 62.58 16.7927C62.4671 16.84 62.3646 16.9093 62.2782 16.9966C61.5226 17.7727 60.6215 18.3883 59.6275 18.8076C58.6336 19.2268 57.5669 19.4412 56.49 19.4382C54.48 19.4369 52.5412 18.6854 51.0454 17.3277C49.5496 15.9701 48.602 14.1019 48.3843 12.0813H65.5564C65.8031 12.0813 66.0396 11.9822 66.2141 11.8058C66.3885 11.6294 66.4865 11.3902 66.4865 11.1407C66.4891 9.817 66.231 8.50599 65.7273 7.28419C65.2236 6.06239 64.4843 4.95424 63.5525 4.02442ZM48.3949 10.2122C48.6388 8.21627 49.5953 6.37912 51.0845 5.04614C52.5737 3.71316 54.4932 2.97615 56.482 2.97364C58.4723 2.97063 60.3947 3.70572 61.8851 5.03972C63.3755 6.37373 64.3304 8.21406 64.5691 10.2122H48.3949Z" fill="#1751D0"/>
  <path d="M95.2364 24.813V27.6254C95.0016 27.325 94.701 27.0837 94.3584 26.9205C94.0158 26.7573 93.6405 26.6766 93.2618 26.6848C92.9089 26.683 92.5591 26.7523 92.233 26.8887C91.9068 27.025 91.6108 27.2257 91.3622 27.479C91.1135 27.7323 90.9173 28.0331 90.7849 28.364C90.6525 28.6948 90.5865 29.049 90.5909 29.4058C90.5865 29.7627 90.6525 30.1169 90.7849 30.4477C90.9173 30.7785 91.1135 31.0794 91.3622 31.3327C91.6108 31.586 91.9068 31.7867 92.233 31.923C92.5591 32.0594 92.9089 32.1287 93.2618 32.1269C93.6405 32.1353 94.0159 32.0547 94.3585 31.8915C94.7012 31.7283 95.0017 31.4868 95.2364 31.1863V32.018H95.9912V24.813H95.2364ZM93.2924 31.3811C93.0356 31.3831 92.7811 31.3332 92.5437 31.2345C92.3062 31.1357 92.0906 30.99 91.9096 30.8059C91.7285 30.6219 91.5856 30.4031 91.4893 30.1624C91.3929 29.9218 91.345 29.6641 91.3484 29.4045C91.345 29.1449 91.3929 28.8872 91.4893 28.6466C91.5856 28.4059 91.7285 28.1871 91.9096 28.0031C92.0906 27.819 92.3062 27.6733 92.5437 27.5745C92.7811 27.4757 93.0356 27.4259 93.2924 27.4279C93.5492 27.4259 93.8039 27.4758 94.0414 27.5746C94.279 27.6735 94.4946 27.8193 94.6757 28.0035C94.8567 28.1878 94.9996 28.4067 95.0959 28.6475C95.1922 28.8883 95.24 29.1461 95.2364 29.4058C95.2396 29.6653 95.1916 29.9229 95.0951 30.1634C94.9987 30.4039 94.8558 30.6225 94.6747 30.8064C94.4937 30.9904 94.2782 31.1359 94.0408 31.2346C93.8035 31.3333 93.549 31.3831 93.2924 31.3811Z" fill="#0A090B"/>
  <path d="M99.575 26.6848C98.0269 26.6848 96.9041 27.8297 96.9041 29.4058C96.9041 30.982 98.0428 32.1269 99.6135 32.1269C100.594 32.1269 101.414 31.6955 101.863 30.9417L101.932 30.8261L101.268 30.423L101.203 30.5453C100.92 31.0667 100.33 31.3771 99.6228 31.3771C98.6195 31.3771 97.8635 30.7469 97.6987 29.7928H102.118V29.6585C102.118 29.6208 102.118 29.5846 102.118 29.5483C102.118 29.512 102.118 29.4623 102.118 29.4206C102.128 28.0971 101.233 26.6848 99.575 26.6848ZM99.575 27.4292C100.498 27.4292 101.191 28.0729 101.336 29.0417H97.696C97.7535 28.5842 97.9782 28.165 98.3259 27.8666C98.6736 27.5681 99.1192 27.4121 99.575 27.4292Z" fill="#0A090B"/>
  <path d="M105.346 26.6848C103.799 26.6848 102.675 27.8297 102.675 29.4058C102.675 30.982 103.815 32.1269 105.386 32.1269C106.366 32.1269 107.186 31.6955 107.635 30.9417L107.705 30.8261L107.04 30.423L106.974 30.5453C106.692 31.0667 106.102 31.3771 105.395 31.3771C104.392 31.3771 103.636 30.7469 103.471 29.7928H107.889V29.6585C107.889 29.6208 107.889 29.5846 107.889 29.5483C107.889 29.512 107.889 29.4623 107.889 29.4206C107.9 28.0971 107.004 26.6848 105.346 26.6848ZM105.346 27.4292C106.276 27.4292 106.963 28.0729 107.108 29.0417H103.475C103.616 28.0729 104.355 27.4292 105.346 27.4292Z" fill="#0A090B"/>
  <path d="M111.51 26.6848C111.132 26.6765 110.757 26.7572 110.414 26.9204C110.072 27.0836 109.771 27.3249 109.537 27.6254V26.795H108.781V34H109.537V31.1863C109.771 31.487 110.072 31.7285 110.414 31.8917C110.756 32.055 111.132 32.1355 111.51 32.1269C111.863 32.1287 112.213 32.0594 112.539 31.923C112.865 31.7867 113.161 31.586 113.41 31.3327C113.659 31.0794 113.855 30.7785 113.987 30.4477C114.12 30.1169 114.186 29.7627 114.181 29.4058C114.186 29.049 114.12 28.6948 113.987 28.364C113.855 28.0331 113.659 27.7323 113.41 27.479C113.161 27.2257 112.865 27.025 112.539 26.8887C112.213 26.7523 111.863 26.683 111.51 26.6848ZM113.425 29.4058C113.428 29.6654 113.38 29.923 113.284 30.1636C113.188 30.4041 113.045 30.6228 112.864 30.8068C112.683 30.9908 112.467 31.1364 112.23 31.235C111.992 31.3336 111.738 31.3833 111.481 31.3811C111.224 31.3833 110.97 31.3336 110.732 31.2349C110.495 31.1362 110.279 30.9905 110.098 30.8063C109.917 30.6222 109.774 30.4034 109.677 30.1626C109.581 29.9219 109.533 29.6642 109.537 29.4045C109.533 29.1448 109.581 28.8871 109.677 28.6464C109.774 28.4056 109.917 28.1868 110.098 28.0026C110.279 27.8185 110.495 27.6728 110.732 27.5741C110.97 27.4754 111.224 27.4257 111.481 27.4279C111.738 27.4257 111.993 27.4755 112.23 27.5743C112.468 27.673 112.684 27.8189 112.865 28.0031C113.046 28.1874 113.189 28.4064 113.285 28.6473C113.381 28.8882 113.429 29.1461 113.425 29.4058Z" fill="#0A090B"/>
  <path d="M122.04 24.813V27.6254C121.805 27.3249 121.504 27.0836 121.162 26.9204C120.819 26.7572 120.444 26.6765 120.065 26.6848C119.712 26.683 119.362 26.7523 119.036 26.8887C118.71 27.025 118.414 27.2257 118.165 27.479C117.917 27.7323 117.72 28.0331 117.588 28.364C117.456 28.6948 117.39 29.049 117.394 29.4058C117.39 29.7627 117.456 30.1169 117.588 30.4477C117.72 30.7785 117.917 31.0794 118.165 31.3327C118.414 31.586 118.71 31.7867 119.036 31.923C119.362 32.0594 119.712 32.1287 120.065 32.1269C120.444 32.1355 120.819 32.055 121.162 31.8917C121.505 31.7285 121.805 31.487 122.04 31.1863V32.018H122.796V24.813H122.04ZM122.04 29.4058C122.043 29.6655 121.995 29.9231 121.898 30.1637C121.802 30.4043 121.659 30.6229 121.477 30.8069C121.296 30.9909 121.081 31.1364 120.843 31.235C120.606 31.3336 120.351 31.3833 120.094 31.3811C119.838 31.3831 119.583 31.3332 119.346 31.2345C119.108 31.1357 118.893 30.99 118.711 30.8059C118.53 30.6219 118.388 30.4031 118.291 30.1624C118.195 29.9218 118.147 29.6641 118.15 29.4045C118.147 29.1449 118.195 28.8872 118.291 28.6466C118.388 28.4059 118.53 28.1871 118.711 28.0031C118.893 27.819 119.108 27.6733 119.346 27.5745C119.583 27.4757 119.838 27.4259 120.094 27.4279C120.351 27.4257 120.606 27.4755 120.844 27.5743C121.081 27.673 121.297 27.8188 121.478 28.003C121.66 28.1873 121.803 28.4063 121.899 28.6472C121.995 28.8881 122.043 29.146 122.04 29.4058Z" fill="#0A090B"/>
  <path d="M124.942 25.3344C124.942 25.4769 124.886 25.6137 124.786 25.7144C124.686 25.8152 124.551 25.8719 124.41 25.8719C124.27 25.8701 124.137 25.8127 124.039 25.7121C123.94 25.6115 123.885 25.4758 123.885 25.3344C123.89 25.196 123.947 25.0648 124.045 24.9679C124.142 24.871 124.273 24.816 124.41 24.8144C124.548 24.8143 124.681 24.8685 124.78 24.9656C124.879 25.0626 124.937 25.1949 124.942 25.3344Z" fill="#0A090B"/>
  <path d="M124.794 26.795H124.038V32.018H124.794V26.795Z" fill="#0A090B"/>
  <path d="M130.488 26.795L128.309 32.018H127.533L125.343 26.795H126.163L127.916 31.0223L129.679 26.795H130.488Z" fill="#0A090B"/>
  <path d="M133.187 26.6848C131.64 26.6848 130.516 27.8297 130.516 29.4058C130.516 30.982 131.656 32.1269 133.227 32.1269C134.207 32.1269 135.027 31.6955 135.476 30.9417L135.546 30.8261L134.881 30.423L134.815 30.5453C134.533 31.0667 133.943 31.3771 133.236 31.3771C132.233 31.3771 131.477 30.7469 131.312 29.7928H135.73C135.73 29.7928 135.741 29.4623 135.741 29.4206C135.741 28.0971 134.845 26.6848 133.187 26.6848ZM133.187 27.4292C134.117 27.4292 134.804 28.0729 134.949 29.0417H131.309C131.457 28.0729 132.196 27.4292 133.187 27.4292Z" fill="#0A090B"/>
</svg>