<svg width="150" height="38" viewBox="0 0 150 38" fill="none" xmlns="http://www.w3.org/2000/svg">
<path d="M98.4055 12.0549V12.7818C98.4055 12.6617 98.4055 12.54 98.4055 12.4184C98.4055 12.2967 98.4099 12.1751 98.4055 12.0549Z" fill="white"/>
<path d="M97.3795 0C97.1075 0 96.8465 0.110754 96.6541 0.307904C96.4617 0.505053 96.3536 0.772448 96.3536 1.05126V5.8495C95.3334 4.38382 93.9862 3.18905 92.4243 2.36464C90.8624 1.54022 89.1309 1.11002 87.374 1.10982C84.4479 1.113 81.6425 2.30541 79.5734 4.42544C77.5042 6.54547 76.3401 9.42 76.3366 12.4184C76.3401 15.4169 77.5041 18.2916 79.5733 20.4118C81.6424 22.5321 84.4478 23.7248 87.374 23.7284C89.1309 23.7283 90.8625 23.2982 92.4244 22.4738C93.9863 21.6493 95.3335 20.4545 96.3536 18.9887V22.8048C96.3536 23.0836 96.4617 23.351 96.6541 23.5482C96.8465 23.7453 97.1075 23.8561 97.3795 23.8561C97.6516 23.8561 97.9126 23.7453 98.105 23.5482C98.2974 23.351 98.4055 23.0836 98.4055 22.8048V1.05126C98.4055 0.772448 98.2974 0.505053 98.105 0.307904C97.9126 0.110754 97.6516 0 97.3795 0ZM87.374 21.6259C84.9917 21.6231 82.7078 20.6521 81.0233 18.926C79.3387 17.1999 78.3912 14.8595 78.3885 12.4184C78.3916 9.9775 79.3393 7.63753 81.0238 5.91171C82.7083 4.18589 84.992 3.21512 87.374 3.21234C89.7028 3.21474 91.9399 4.14263 93.6147 5.8008C95.2895 7.45896 96.2713 9.71813 96.3536 12.103C96.3536 12.2081 96.3536 12.3132 96.3536 12.4184C96.3536 12.5235 96.3536 12.6286 96.3536 12.7337C96.2717 15.1189 95.29 17.3784 93.6152 19.0369C91.9404 20.6954 89.703 21.6235 87.374 21.6259Z" fill="white"/>
<path d="M138.963 1.10982C136.037 1.113 133.231 2.30541 131.162 4.42544C129.093 6.54547 127.929 9.42 127.925 12.4184C127.929 15.4169 129.093 18.2916 131.162 20.4118C133.231 22.5321 136.036 23.7248 138.963 23.7284C141.889 23.7252 144.695 22.5326 146.764 20.4123C148.833 18.2919 149.997 15.417 150 12.4184C149.997 9.42 148.832 6.54547 146.763 4.42544C144.694 2.30541 141.889 1.113 138.963 1.10982ZM138.963 21.6259C136.58 21.6231 134.296 20.6521 132.612 18.926C130.927 17.1999 129.98 14.8595 129.977 12.4184C129.98 9.9775 130.928 7.63753 132.612 5.91171C134.297 4.18589 136.581 3.21512 138.963 3.21234C141.345 3.21472 143.629 4.18536 145.313 5.91127C146.998 7.63717 147.945 9.97738 147.948 12.4184C147.946 14.8596 146.998 17.2002 145.314 18.9264C143.629 20.6527 141.345 21.6235 138.963 21.6259Z" fill="white"/>
<path d="M47.0938 20.3359C46.0693 21.4138 44.8437 22.2696 43.4899 22.8524C42.1361 23.4352 40.6817 23.7331 39.2133 23.7284C36.287 23.7252 33.4814 22.5326 31.4122 20.4123C29.3429 18.2919 28.1791 15.417 28.176 12.4184C28.1795 9.42 29.3435 6.54547 31.4127 4.42544C33.4819 2.30541 36.2872 1.11301 39.2133 1.10983C40.6753 1.10535 42.1233 1.40067 43.4722 1.97841C44.821 2.55615 46.0434 3.40462 47.0674 4.47386C47.258 4.67234 47.364 4.94021 47.3621 5.21867C47.3601 5.49714 47.2505 5.76344 47.0571 5.95914C46.9613 6.05618 46.8477 6.13292 46.7229 6.18499C46.5982 6.23705 46.4646 6.26343 46.3299 6.26259C46.1951 6.26175 46.0619 6.23372 45.9377 6.18011C45.8135 6.1265 45.7009 6.04835 45.6062 5.95013C44.7728 5.07982 43.7778 4.38923 42.6798 3.91904C41.5819 3.44885 40.4033 3.20856 39.2133 3.21234C36.8312 3.21473 34.5472 4.18537 32.8627 5.91127C31.1781 7.63718 30.2305 9.97738 30.2278 12.4184C30.2301 14.8596 31.1776 17.2002 32.8622 18.9264C34.5468 20.6527 36.8309 21.6235 39.2133 21.6259C40.4089 21.6297 41.5929 21.3871 42.6952 20.9127C43.7974 20.4382 44.7954 19.7416 45.6297 18.8641C45.724 18.7655 45.8363 18.6868 45.9603 18.6327C46.0842 18.5786 46.2174 18.55 46.3521 18.5486C46.4868 18.5472 46.6205 18.573 46.7455 18.6246C46.8705 18.6761 46.9844 18.7524 47.0806 18.8491C47.1767 18.9458 47.2534 19.061 47.3061 19.1881C47.3588 19.3151 47.3865 19.4516 47.3877 19.5897C47.3889 19.7277 47.3636 19.8647 47.3132 19.9927C47.2628 20.1208 47.1882 20.2373 47.0938 20.3359Z" fill="white"/>
<path d="M13.8469 1.10982C10.9209 1.113 8.11549 2.30541 6.0463 4.42544C3.97711 6.54547 2.81308 9.42 2.80959 12.4184C2.80675 15.1187 3.75077 17.7303 5.46964 19.7772L0.300506 25.0755C0.20523 25.1731 0.129655 25.289 0.0780919 25.4166C0.0265285 25.5441 0 25.6809 0 25.8189C0 25.957 0.0265285 26.0937 0.0780919 26.2212C0.129655 26.3488 0.20523 26.4647 0.300506 26.5623C0.397251 26.6595 0.511825 26.736 0.637598 26.7876C0.763371 26.8391 0.897852 26.8647 1.0333 26.8627C1.16875 26.8647 1.30325 26.8391 1.42902 26.7876C1.55479 26.736 1.66935 26.6595 1.76609 26.5623L6.94549 21.2534L6.95868 21.2384C8.9139 22.8534 11.3503 23.7328 13.8616 23.7299C16.7878 23.7263 19.5932 22.5336 21.6623 20.4133C23.7315 18.2931 24.8954 15.4184 24.8989 12.4199C24.8958 9.41863 23.73 6.54146 21.6576 4.42067C19.5852 2.29989 16.7758 1.10902 13.8469 1.10982ZM5.2835 15.2087C5.00292 14.3065 4.86054 13.3652 4.86141 12.4184C4.86413 9.97738 5.81174 7.63717 7.4963 5.91127C9.18087 4.18536 11.4648 3.21473 13.8469 3.21234C16.229 3.21512 18.5127 4.18589 20.1971 5.91171C21.8816 7.63753 22.8293 9.9775 22.8324 12.4184C22.834 13.6623 22.5877 14.8934 22.1085 16.0362C21.5222 16.3005 19.0556 17.1701 13.9598 15.6923V13.2158L18.2408 11.2154C18.4001 11.1394 18.5377 11.0226 18.6403 10.8764C18.743 10.7302 18.8073 10.5594 18.827 10.3804C18.8474 10.2008 18.8223 10.0187 18.754 9.85193C18.6857 9.68513 18.5766 9.53922 18.4371 9.42829L13.5553 5.54614C13.4036 5.42571 13.2219 5.35131 13.031 5.3314C12.84 5.31149 12.6474 5.34687 12.4752 5.43351C12.3029 5.51997 12.1578 5.65418 12.0563 5.82088C11.9547 5.98759 11.9008 6.18011 11.9006 6.37663V15.1877C9.71372 14.7631 7.46781 14.7702 5.2835 15.2087ZM13.9598 10.9046V8.52271L15.846 10.0245L13.9598 10.9046ZM13.8469 21.6259C12.3007 21.6253 10.7807 21.2158 9.43406 20.4371C8.08742 19.6583 6.95967 18.5367 6.15992 17.1806C8.24727 16.8483 10.378 16.9392 12.4312 17.4479C12.6012 17.4899 12.7712 17.5335 12.9441 17.583C13.0291 17.6056 13.1141 17.6311 13.2006 17.6566C15.6921 18.3985 17.6677 18.6433 19.1875 18.6433C19.6329 18.6442 20.0781 18.6216 20.5212 18.5757C19.6803 19.5362 18.6513 20.3042 17.5013 20.8297C16.3513 21.3553 15.1061 21.6266 13.8469 21.6259Z" fill="white"/>
<path d="M96.3595 12.4184C96.3595 12.5235 96.3595 12.6286 96.3595 12.7337V12.103C96.358 12.2081 96.3595 12.3132 96.3595 12.4184Z" fill="white"/>
<path d="M124.588 22.7673C124.588 23.0461 124.48 23.3135 124.288 23.5106C124.095 23.7078 123.834 23.8185 123.562 23.8185C123.29 23.8185 123.029 23.7078 122.837 23.5106C122.644 23.3135 122.536 23.0461 122.536 22.7673L122.514 12.4169C122.512 9.97548 121.565 7.63473 119.88 5.90826C118.196 4.18179 115.911 3.21062 113.529 3.20784C111.147 3.21062 108.863 4.18143 107.179 5.90729C105.495 7.63315 104.548 9.97313 104.545 12.4139V22.8003C104.545 23.0791 104.437 23.3465 104.244 23.5437C104.052 23.7408 103.791 23.8516 103.519 23.8516C103.247 23.8516 102.986 23.7408 102.793 23.5437C102.601 23.3465 102.493 23.0791 102.493 22.8003V1.05126C102.493 0.772448 102.601 0.505053 102.793 0.307904C102.986 0.110754 103.247 0 103.519 0C103.791 0 104.052 0.110754 104.244 0.307904C104.437 0.505053 104.545 0.772448 104.545 1.05126V5.85701C105.564 4.38887 106.912 3.19183 108.475 2.36577C110.037 1.53971 111.77 1.10858 113.529 1.10833C116.455 1.11151 119.26 2.30391 121.329 4.42394C123.399 6.54397 124.563 9.4185 124.566 12.4169L124.588 22.7673Z" fill="white"/>
<path d="M70.0947 4.49788C69.0689 3.45312 67.8521 2.62591 66.514 2.06362C65.1758 1.50132 63.7426 1.21498 62.2963 1.22096C59.4033 1.22438 56.6269 2.39023 54.5635 4.46813C52.5001 6.54604 51.3142 9.37026 51.2604 12.3343C51.2582 12.3758 51.2582 12.4174 51.2604 12.4589C51.2583 12.4964 51.2583 12.534 51.2604 12.5715C51.2755 15.5621 52.4447 18.4251 54.5126 20.5354C56.5805 22.6457 59.3793 23.8319 62.2978 23.835C63.7569 23.8393 65.2022 23.545 66.5488 22.9694C67.8955 22.3938 69.1165 21.5485 70.1401 20.483C70.2354 20.3854 70.311 20.2695 70.3625 20.142C70.4141 20.0144 70.4407 19.8777 70.4407 19.7396C70.4407 19.6016 70.4141 19.4649 70.3625 19.3373C70.311 19.2098 70.2354 19.0939 70.1401 18.9962C70.0449 18.8986 69.9318 18.8212 69.8073 18.7683C69.6828 18.7155 69.5494 18.6883 69.4147 18.6883C69.2799 18.6883 69.1465 18.7155 69.022 18.7683C68.8976 18.8212 68.7845 18.8986 68.6892 18.9962C67.8559 19.8636 66.8619 20.5517 65.7657 21.0203C64.6694 21.4888 63.4929 21.7284 62.3051 21.725C60.0882 21.7236 57.9499 20.8837 56.3001 19.3663C54.6503 17.849 53.6051 15.761 53.365 13.5027H72.3048C72.5769 13.5027 72.8378 13.3919 73.0302 13.1948C73.2226 12.9976 73.3307 12.7302 73.3307 12.4514C73.3336 10.9719 73.0489 9.5067 72.4933 8.14115C71.9377 6.77561 71.1223 5.5371 70.0947 4.49788ZM53.3767 11.4137C53.6458 9.18289 54.7007 7.1296 56.3432 5.6398C57.9858 4.15 60.1028 3.32628 62.2963 3.32348C64.4915 3.32011 66.6118 4.14168 68.2556 5.63263C69.8994 7.12358 70.9526 9.18042 71.2159 11.4137H53.3767Z" fill="white"/>
<path d="M105.04 27.7322V30.8755C104.781 30.5397 104.45 30.27 104.072 30.0876C103.694 29.9052 103.28 29.8151 102.862 29.8242C102.473 29.8222 102.087 29.8996 101.728 30.052C101.368 30.2044 101.041 30.4287 100.767 30.7118C100.493 30.9949 100.276 31.3312 100.13 31.7009C99.9843 32.0706 99.9116 32.4665 99.9165 32.8654C99.9116 33.2642 99.9843 33.6601 100.13 34.0298C100.276 34.3996 100.493 34.7358 100.767 35.0189C101.041 35.302 101.368 35.5263 101.728 35.6787C102.087 35.8311 102.473 35.9085 102.862 35.9065C103.28 35.9159 103.694 35.8258 104.072 35.6434C104.45 35.461 104.781 35.1912 105.04 34.8552V35.7849H105.873V27.7322H105.04ZM102.896 35.073C102.613 35.0752 102.332 35.0195 102.07 34.9091C101.808 34.7987 101.571 34.6359 101.371 34.4302C101.171 34.2244 101.014 33.9799 100.907 33.7109C100.801 33.442 100.748 33.154 100.752 32.8638C100.748 32.5737 100.801 32.2857 100.907 32.0168C101.014 31.7478 101.171 31.5033 101.371 31.2975C101.571 31.0918 101.808 30.929 102.07 30.8186C102.332 30.7082 102.613 30.6525 102.896 30.6547C103.179 30.6525 103.46 30.7082 103.722 30.8187C103.984 30.9292 104.222 31.0922 104.422 31.2981C104.621 31.504 104.779 31.7487 104.885 32.0178C104.991 32.2869 105.044 32.5751 105.04 32.8654C105.044 33.1554 104.991 33.4432 104.884 33.712C104.778 33.9808 104.62 34.2251 104.421 34.4307C104.221 34.6363 103.983 34.799 103.721 34.9093C103.46 35.0196 103.179 35.0752 102.896 35.073Z" fill="white"/>
<path d="M109.825 29.8242C108.118 29.8242 106.879 31.1037 106.879 32.8654C106.879 34.627 108.135 35.9065 109.868 35.9065C110.949 35.9065 111.854 35.4244 112.349 34.5819L112.425 34.4528L111.692 34.0022L111.621 34.1389C111.308 34.7216 110.658 35.0685 109.878 35.0685C108.772 35.0685 107.938 34.3641 107.756 33.2979H112.63V33.1477C112.63 33.1056 112.63 33.0651 112.63 33.0245C112.63 32.984 112.63 32.9284 112.63 32.8819C112.641 31.4026 111.654 29.8242 109.825 29.8242ZM109.825 30.6562C110.844 30.6562 111.607 31.3756 111.767 32.4584H107.753C107.816 31.947 108.064 31.4785 108.448 31.145C108.831 30.8115 109.323 30.6371 109.825 30.6562Z" fill="white"/>
<path d="M116.19 29.8242C114.484 29.8242 113.245 31.1037 113.245 32.8654C113.245 34.627 114.502 35.9065 116.234 35.9065C117.316 35.9065 118.22 35.4244 118.716 34.5819L118.792 34.4528L118.059 34.0022L117.986 34.1389C117.675 34.7216 117.024 35.0685 116.245 35.0685C115.138 35.0685 114.304 34.3641 114.122 33.2979H118.995V33.1477C118.995 33.1056 118.995 33.0651 118.995 33.0245C118.995 32.984 118.995 32.9284 118.995 32.8819C119.007 31.4026 118.019 29.8242 116.19 29.8242ZM116.19 30.6562C117.216 30.6562 117.974 31.3756 118.134 32.4584H114.127C114.282 31.3756 115.097 30.6562 116.19 30.6562Z" fill="white"/>
<path d="M122.989 29.8242C122.572 29.8149 122.158 29.9051 121.78 30.0875C121.403 30.2699 121.071 30.5396 120.813 30.8755V29.9474H119.979V38H120.813V34.8552C121.071 35.1913 121.402 35.4613 121.78 35.6437C122.158 35.8261 122.572 35.9161 122.989 35.9065C123.378 35.9085 123.764 35.8311 124.124 35.6787C124.484 35.5263 124.81 35.302 125.084 35.0189C125.359 34.7358 125.575 34.3996 125.721 34.0298C125.867 33.6601 125.94 33.2642 125.935 32.8653C125.94 32.4665 125.867 32.0706 125.721 31.7009C125.575 31.3312 125.359 30.9949 125.084 30.7118C124.81 30.4287 124.484 30.2044 124.124 30.052C123.764 29.8996 123.378 29.8222 122.989 29.8242ZM125.101 32.8653C125.105 33.1554 125.052 33.4434 124.946 33.7122C124.839 33.9811 124.682 34.2255 124.482 34.4311C124.282 34.6368 124.045 34.7995 123.783 34.9097C123.521 35.0199 123.24 35.0754 122.957 35.073C122.674 35.0754 122.393 35.0199 122.131 34.9095C121.869 34.7992 121.631 34.6364 121.431 34.4306C121.232 34.2248 121.074 33.9802 120.968 33.7112C120.862 33.4421 120.809 33.1541 120.813 32.8638C120.809 32.5736 120.862 32.2856 120.968 32.0165C121.074 31.7475 121.232 31.5029 121.431 31.2971C121.631 31.0913 121.869 30.9285 122.131 30.8182C122.393 30.7078 122.674 30.6523 122.957 30.6547C123.24 30.6523 123.521 30.7079 123.783 30.8183C124.045 30.9287 124.283 31.0917 124.483 31.2976C124.683 31.5036 124.84 31.7483 124.947 32.0176C125.053 32.2868 125.105 32.575 125.101 32.8653Z" fill="white"/>
<path d="M134.603 27.7322V30.8755C134.344 30.5396 134.012 30.2699 133.634 30.0875C133.256 29.9051 132.842 29.8149 132.425 29.8242C132.035 29.8222 131.65 29.8996 131.29 30.052C130.93 30.2044 130.604 30.4287 130.329 30.7118C130.055 30.9949 129.839 31.3312 129.693 31.7009C129.547 32.0706 129.474 32.4665 129.479 32.8654C129.474 33.2642 129.547 33.6601 129.693 34.0298C129.839 34.3996 130.055 34.7358 130.329 35.0189C130.604 35.302 130.93 35.5263 131.29 35.6787C131.65 35.8311 132.035 35.9085 132.425 35.9065C132.842 35.9161 133.257 35.8261 133.634 35.6437C134.012 35.4613 134.344 35.1914 134.603 34.8552V35.7849H135.436V27.7322H134.603ZM134.603 32.8654C134.606 33.1555 134.553 33.4435 134.447 33.7123C134.34 33.9812 134.182 34.2256 133.982 34.4312C133.783 34.6368 133.545 34.7995 133.283 34.9097C133.021 35.0199 132.74 35.0754 132.457 35.073C132.174 35.0752 131.893 35.0195 131.631 34.9091C131.369 34.7987 131.131 34.6359 130.932 34.4302C130.732 34.2244 130.574 33.9799 130.468 33.7109C130.362 33.442 130.309 33.154 130.313 32.8638C130.309 32.5737 130.362 32.2857 130.468 32.0168C130.574 31.7478 130.732 31.5033 130.932 31.2975C131.131 31.0918 131.369 30.929 131.631 30.8186C131.893 30.7082 132.174 30.6525 132.457 30.6547C132.74 30.6523 133.021 30.7079 133.284 30.8183C133.546 30.9287 133.784 31.0916 133.984 31.2975C134.183 31.5034 134.341 31.7482 134.447 32.0174C134.554 32.2867 134.606 32.575 134.603 32.8654Z" fill="white"/>
<path d="M137.803 28.3149C137.803 28.4742 137.742 28.627 137.632 28.7397C137.522 28.8523 137.373 28.9156 137.217 28.9156C137.063 28.9136 136.916 28.8495 136.807 28.737C136.699 28.6246 136.638 28.4729 136.638 28.3149C136.643 28.1603 136.706 28.0136 136.814 27.9053C136.922 27.797 137.066 27.7356 137.217 27.7337C137.369 27.7336 137.516 27.7942 137.625 27.9027C137.734 28.0112 137.798 28.159 137.803 28.3149Z" fill="white"/>
<path d="M137.641 29.9474H136.807V35.7849H137.641V29.9474Z" fill="white"/>
<path d="M143.921 29.9474L141.517 35.7849H140.661L138.246 29.9474H139.15L141.083 34.672L143.028 29.9474H143.921Z" fill="white"/>
<path d="M146.897 29.8242C145.191 29.8242 143.952 31.1037 143.952 32.8654C143.952 34.627 145.209 35.9065 146.941 35.9065C148.023 35.9065 148.927 35.4244 149.423 34.5819L149.499 34.4528L148.766 34.0022L148.693 34.1389C148.382 34.7216 147.731 35.0685 146.952 35.0685C145.845 35.0685 145.011 34.3641 144.829 33.2979H149.702C149.702 33.2979 149.714 32.9284 149.714 32.8819C149.714 31.4026 148.726 29.8242 146.897 29.8242ZM146.897 30.6562C147.923 30.6562 148.681 31.3756 148.841 32.4584H144.826C144.989 31.3756 145.804 30.6562 146.897 30.6562Z" fill="white"/>
</svg>