<svg width="24" height="24" viewBox="0 0 24 24" fill="none" xmlns="http://www.w3.org/2000/svg">
<path d="M7.72937 19.512C7.20498 19.6853 6.92036 20.2509 7.09367 20.7753C7.26697 21.2997 7.83256 21.5843 8.35695 21.411L7.72937 19.512ZM13.8622 20.8462L13.7722 19.8502L13.8622 20.8462ZM17.3536 20.0769L17.7891 20.9771H17.7891L17.3536 20.0769ZM20.6897 17.0681L19.9153 16.4354L20.6897 17.0681ZM18.408 15.1854L19.1121 15.8955L18.408 15.1854ZM16.8715 16.7087L17.5756 17.4188L16.8715 16.7087ZM12.6984 16.3846C12.1461 16.3846 11.6984 16.8323 11.6984 17.3846C11.6984 17.9369 12.1461 18.3846 12.6984 18.3846V16.3846ZM20.335 14.9962L19.7836 15.8305L20.335 14.9962ZM9.22402 14.4915L9.66816 15.3875H9.66816L9.22402 14.4915ZM13.4001 14.1128L13.6611 13.1475H13.6611L13.4001 14.1128ZM15.0309 14.5538L14.7699 15.5191H14.7699L15.0309 14.5538ZM15.5476 16.4829L14.8435 15.7727L15.5476 16.4829ZM13.934 16.6745C13.5418 17.0633 13.5391 17.6965 13.9279 18.0887C14.3168 18.4809 14.9499 18.4836 15.3421 18.0948L13.934 16.6745ZM8.35695 21.411C8.4545 21.3788 8.67974 21.3518 9.10006 21.3815C9.50005 21.4098 9.96832 21.4794 10.5079 21.5634C11.5286 21.7224 12.8321 21.9433 13.9521 21.8421L13.7722 19.8502C12.9526 19.9242 11.9284 19.7605 10.8156 19.5872C10.2883 19.5051 9.73824 19.4216 9.24113 19.3865C8.76435 19.3528 8.21371 19.352 7.72937 19.512L8.35695 21.411ZM13.9521 21.8421C15.4538 21.7065 16.2079 21.7421 17.7891 20.9771L16.9181 19.1767C15.7223 19.7553 15.3478 19.7079 13.7722 19.8502L13.9521 21.8421ZM17.7891 20.9771C19.219 20.2853 20.6284 18.7238 21.4642 17.7007L19.9153 16.4354C19.0698 17.4704 17.9056 18.699 16.9181 19.1767L17.7891 20.9771ZM17.7039 14.4753L16.1675 15.9986L17.5756 17.4188L19.1121 15.8955L17.7039 14.4753ZM15.2257 16.3846H12.6984V18.3846H15.2257V16.3846ZM16.1675 15.9986C15.9191 16.2448 15.5805 16.3846 15.2257 16.3846V18.3846C16.1054 18.3846 16.9509 18.0382 17.5756 17.4188L16.1675 15.9986ZM20.8864 14.162C19.8866 13.5011 18.5558 13.6307 17.7039 14.4753L19.1121 15.8955C19.2897 15.7194 19.572 15.6906 19.7836 15.8305L20.8864 14.162ZM21.4642 17.7007C22.4053 16.5487 22.046 14.9284 20.8864 14.162L19.7836 15.8305C20.0394 15.9995 20.0448 16.2769 19.9153 16.4354L21.4642 17.7007ZM3.77587 14.5385H6.87935V12.5385H3.77587V14.5385ZM6.65522 14.3077V21.2308H8.65522V14.3077H6.65522ZM6.87935 21H3.77587V23H6.87935V21ZM4 21.2308V14.3077H2V21.2308H4ZM3.77587 21C3.89153 21 4 21.0952 4 21.2308H2C2 22.216 2.80321 23 3.77587 23V21ZM6.65522 21.2308C6.65522 21.0952 6.76369 21 6.87935 21V23C7.85201 23 8.65522 22.216 8.65522 21.2308H6.65522ZM6.87935 14.5385C6.76369 14.5385 6.65522 14.4432 6.65522 14.3077H8.65522C8.65522 13.3225 7.85202 12.5385 6.87935 12.5385V14.5385ZM3.77587 12.5385C2.8032 12.5385 2 13.3225 2 14.3077H4C4 14.4432 3.89153 14.5385 3.77587 14.5385V12.5385ZM8.4873 15.9729L9.66816 15.3875L8.77987 13.5956L7.59901 14.181L8.4873 15.9729ZM11.6529 14.9231H11.9711V12.9231H11.6529V14.9231ZM13.1391 15.0781L14.7699 15.5191L15.2919 13.5884L13.6611 13.1475L13.1391 15.0781ZM14.8435 15.7727L13.934 16.6745L15.3421 18.0948L16.2517 17.193L14.8435 15.7727ZM14.7699 15.5191C14.8963 15.5533 14.922 15.6949 14.8435 15.7727L16.2517 17.193C17.4369 16.0179 16.8897 14.0205 15.2919 13.5884L14.7699 15.5191ZM11.9711 14.9231C12.3657 14.9231 12.7585 14.9752 13.1391 15.0781L13.6611 13.1475C13.1102 12.9985 12.5419 12.9231 11.9711 12.9231V14.9231ZM9.66816 15.3875C10.284 15.0822 10.9635 14.9231 11.6529 14.9231V12.9231C10.6559 12.9231 9.67231 13.1532 8.77987 13.5956L9.66816 15.3875ZM16.7415 8.15385C16.7415 9.29281 15.8079 10.2308 14.6381 10.2308V12.2308C16.8962 12.2308 18.7415 10.4136 18.7415 8.15385H16.7415ZM14.6381 10.2308C13.4682 10.2308 12.5346 9.29281 12.5346 8.15385H10.5346C10.5346 10.4136 12.3799 12.2308 14.6381 12.2308V10.2308ZM12.5346 8.15385C12.5346 7.01488 13.4682 6.07692 14.6381 6.07692V4.07692C12.3799 4.07692 10.5346 5.89414 10.5346 8.15385H12.5346ZM14.6381 6.07692C15.8079 6.07692 16.7415 7.01488 16.7415 8.15385H18.7415C18.7415 5.89414 16.8962 4.07692 14.6381 4.07692V6.07692ZM11.5346 7.15385C10.3647 7.15385 9.43109 6.21589 9.43109 5.07692H7.43109C7.43109 7.33663 9.2764 9.15385 11.5346 9.15385V7.15385ZM9.43109 5.07692C9.43109 3.93796 10.3647 3 11.5346 3V1C9.2764 1 7.43109 2.81722 7.43109 5.07692H9.43109ZM11.5346 3C12.7044 3 13.6381 3.93796 13.6381 5.07692H15.6381C15.6381 2.81722 13.7927 1 11.5346 1V3Z" fill="#7F7D83"/>
</svg>