<svg width="24" height="24" viewBox="0 0 24 24" fill="none" xmlns="http://www.w3.org/2000/svg">
<path d="M10.1375 8.98654C10.0489 8.62103 10.002 8.23926 10.002 7.84651C10.002 6.07174 10.9606 4.52086 12.3882 3.6834C11.7815 2.882 10.8198 2.36426 9.73714 2.36426C7.90185 2.36426 6.41406 3.85205 6.41406 5.68733C6.41406 7.52262 7.90185 9.01041 9.73714 9.01041C9.87263 9.01041 10.0062 9.0023 10.1375 8.98654Z" fill="white"/>
<path d="M18.1478 7.8464C18.1478 9.68168 16.66 11.1695 14.8247 11.1695C12.9894 11.1695 11.5016 9.68168 11.5016 7.8464C11.5016 6.01111 12.9894 4.52332 14.8247 4.52332C16.66 4.52332 18.1478 6.01111 18.1478 7.8464Z" fill="white"/>
<path d="M2.36328 14.4924C2.36328 14.0336 2.70533 13.6616 3.12728 13.6616H6.18327C6.60521 13.6616 6.94727 14.0336 6.94727 14.4924V15.2718L8.38093 14.8715C8.69042 14.7851 8.9912 14.6713 9.29195 14.5575C9.40949 14.513 9.52702 14.4685 9.64507 14.4257C10.2794 14.1955 10.9506 14.0769 11.6288 14.0769H11.9695C12.4864 14.0769 13.001 14.1458 13.4996 14.2818L15.2458 14.7581C16.0468 14.9765 16.3837 15.875 16.0169 16.5509C15.9028 16.7613 15.6801 16.8794 15.4522 16.9522L14.5833 17.2296C14.257 17.3337 14.332 17.8154 14.6746 17.8154H15.4544C16.1154 17.8154 16.7493 17.5528 17.2167 17.0854L19.1791 15.5333C19.7303 14.9822 20.4207 14.8907 21.0693 15.3231C21.827 15.8282 21.8783 16.7658 21.3051 17.4735C20.4049 18.5849 19.0271 20.0915 17.7329 20.7231C16.4474 21.3504 15.8217 21.4018 14.6108 21.5012C14.4213 21.5168 14.2174 21.5335 13.9944 21.5538C13.0157 21.643 11.6304 21.4636 10.3086 21.2925C8.95154 21.1168 7.66149 20.9497 6.94727 21.0909V21.9693C6.94727 22.4281 6.60521 22.8001 6.18327 22.8001H3.12728C2.70533 22.8001 2.36328 22.4281 2.36328 21.9693V14.4924Z" fill="white"/>
</svg>