<svg width="20" height="20" viewBox="0 0 20 20" fill="none" xmlns="http://www.w3.org/2000/svg">
<path fill-rule="evenodd" clip-rule="evenodd" d="M19.6 9.99999C19.6 15.3019 15.3019 19.6 9.99999 19.6C4.69806 19.6 0.399994 15.3019 0.399994 9.99999C0.399994 4.69806 4.69806 0.399994 9.99999 0.399994C15.3019 0.399994 19.6 4.69806 19.6 9.99999ZM13.4388 6.72795C13.4388 4.89644 11.8927 3.39999 10.0003 3.39999C8.10791 3.39999 6.56173 4.89644 6.56173 6.72795C6.56173 8.55946 8.10791 10.0559 10.0003 10.0559C11.8927 10.0559 13.4388 8.55946 13.4388 6.72795ZM5.06551 15.243C4.4016 14.6179 4.35032 13.5896 4.95766 12.9094C5.41883 12.3929 6.02104 11.9067 6.654 11.9067H13.3464C14.2636 11.9067 14.9539 12.3688 15.4179 13.0633C15.8273 13.6761 15.6772 14.4895 15.1635 15.018C13.8553 16.3639 12.0254 17.2 10.0002 17.2C8.09043 17.2 6.35427 16.4564 5.06551 15.243Z" fill="#1751D0"/>
</svg>