<svg width="21" height="20" viewBox="0 0 21 20" fill="none" xmlns="http://www.w3.org/2000/svg">
<path d="M9.62092 2.58621C9.9683 1.8046 11.0317 1.8046 11.3791 2.58621L13.0189 6.27582C13.1601 6.59359 13.4485 6.81251 13.7813 6.85467L17.6462 7.34413C18.4649 7.44782 18.7935 8.50461 18.1895 9.09136L15.3381 11.8611C15.0925 12.0997 14.9824 12.4539 15.0469 12.7977L15.7957 16.7898C15.9543 17.6355 15.094 18.2887 14.3733 17.8697L10.9712 15.8919C10.6782 15.7216 10.3218 15.7216 10.0288 15.8919L6.62671 17.8697C5.90601 18.2887 5.0457 17.6355 5.20433 16.7898L5.95315 12.7977C6.01764 12.4539 5.90749 12.0997 5.66191 11.8611L2.8105 9.09136C2.20645 8.50461 2.53506 7.44782 3.3538 7.34413L7.21866 6.85467C7.55153 6.81251 7.8399 6.59359 7.98112 6.27582L9.62092 2.58621Z" fill="#1751D0"/>
</svg>