<svg width="18" height="21" viewBox="0 0 18 21" fill="none" xmlns="http://www.w3.org/2000/svg">
  <path fill-rule="evenodd" clip-rule="evenodd" d="M9.15135 0.348633C6.30634 0.348633 4 2.65497 4 5.49998C4 5.51718 4.00043 5.53427 4.00129 5.55125H2.51318C1.36681 5.55125 0.4375 6.48057 0.4375 7.62693V18.5242C0.4375 19.6706 1.36681 20.5999 2.51318 20.5999H15.4862C16.6325 20.5999 17.5618 19.6706 17.5618 18.5242V7.62693C17.5618 6.48057 16.6325 5.55125 15.4862 5.55125H14.3014C14.3023 5.53427 14.3027 5.51718 14.3027 5.49998C14.3027 2.65497 11.9964 0.348633 9.15135 0.348633ZM12.304 5.55125C12.3031 5.53427 12.3027 5.51718 12.3027 5.49998C12.3027 3.75954 10.8918 2.34863 9.15135 2.34863C7.41091 2.34863 6 3.75954 6 5.49998C6 5.51718 5.99957 5.53427 5.99871 5.55125H12.304ZM7 9.49998C7 10.3284 6.32843 11 5.5 11C4.67157 11 4 10.3284 4 9.49998C4 8.67156 4.67157 7.99998 5.5 7.99998C6.32843 7.99998 7 8.67156 7 9.49998ZM14 9.49998C14 10.3284 13.3284 11 12.5 11C11.6716 11 11 10.3284 11 9.49998C11 8.67156 11.6716 7.99998 12.5 7.99998C13.3284 7.99998 14 8.67156 14 9.49998Z" fill="#2C1DFE"/>
</svg>
