<svg width="24" height="24" viewBox="0 0 24 24" fill="none" xmlns="http://www.w3.org/2000/svg">
<path fill-rule="evenodd" clip-rule="evenodd" d="M17.8062 3C17.0811 3 16.4933 3.58547 16.4933 4.30769V19.6923C16.4933 20.4145 17.0811 21 17.8062 21H19.6871C20.4122 21 21 20.4145 21 19.6923V4.30769C21 3.58547 20.4122 3 19.6871 3H17.8062ZM9.63726 10.8462C9.63726 10.1239 10.225 9.53846 10.9501 9.53846H12.8465C13.5716 9.53846 14.1593 10.1239 14.1593 10.8462V19.6923C14.1593 20.4145 13.5716 21 12.8465 21H10.9501C10.225 21 9.63726 20.4145 9.63726 19.6923V10.8462ZM3 16.0769C3 15.3547 3.58779 14.7692 4.31286 14.7692H6.21927C6.94434 14.7692 7.53213 15.3547 7.53213 16.0769V19.6923C7.53213 20.4145 6.94434 21 6.21927 21H4.31286C3.58779 21 3 20.4145 3 19.6923V16.0769Z" fill="white"/>
</svg>
