<svg width="24" height="24" viewBox="0 0 24 24" fill="none" xmlns="http://www.w3.org/2000/svg">
  <path fill-rule="evenodd" clip-rule="evenodd" d="M12.1514 1.34863C9.30634 1.34863 7 3.65497 7 6.49998C7 6.51718 7.00043 6.53427 7.00129 6.55125H5.51318C4.36681 6.55125 3.4375 7.48057 3.4375 8.62693V19.5242C3.4375 20.6706 4.36681 21.5999 5.51318 21.5999H18.4862C19.6325 21.5999 20.5618 20.6706 20.5618 19.5242V8.62693C20.5618 7.48057 19.6325 6.55125 18.4862 6.55125H17.3014C17.3023 6.53427 17.3027 6.51718 17.3027 6.49998C17.3027 3.65497 14.9964 1.34863 12.1514 1.34863ZM15.304 6.55125C15.3031 6.53427 15.3027 6.51718 15.3027 6.49998C15.3027 4.75954 13.8918 3.34863 12.1514 3.34863C10.4109 3.34863 9 4.75954 9 6.49998C9 6.51718 8.99957 6.53427 8.99871 6.55125H15.304ZM10 10.5C10 11.3284 9.32843 12 8.5 12C7.67157 12 7 11.3284 7 10.5C7 9.67156 7.67157 8.99998 8.5 8.99998C9.32843 8.99998 10 9.67156 10 10.5ZM17 10.5C17 11.3284 16.3284 12 15.5 12C14.6716 12 14 11.3284 14 10.5C14 9.67156 14.6716 8.99998 15.5 8.99998C16.3284 8.99998 17 9.67156 17 10.5Z" fill="white"/>
</svg>
